<svg width="44" height="44" viewBox="0 0 44 44" fill="none" xmlns="http://www.w3.org/2000/svg">
<g clip-path="url(#clip0)">
<path d="M17.998 4.87352C18.4878 5.0351 18.9514 5.24185 19.3759 5.4881C19.4879 5.55302 19.6102 5.58391 19.7308 5.58391C19.9752 5.58391 20.213 5.45729 20.3446 5.2307C20.5409 4.89214 20.4256 4.45851 20.0871 4.26206C19.578 3.96677 19.0244 3.71968 18.4418 3.52748C18.0702 3.40502 17.6694 3.60676 17.5468 3.97849C17.4243 4.35022 17.6263 4.75096 17.998 4.87352Z" fill="#FF9900"/>
<path d="M22.8031 12.4601C22.8031 13.5173 22.6804 14.5979 22.4383 15.6717C22.3522 16.0536 22.5919 16.4329 22.9738 16.5189C23.0262 16.5308 23.0787 16.5364 23.1302 16.5364C23.4543 16.5364 23.7467 16.3128 23.821 15.9835C24.0861 14.8075 24.2206 13.6221 24.2206 12.4601C24.2206 9.98538 23.6166 7.92394 22.4254 6.33335C22.1909 6.02011 21.7466 5.95623 21.4334 6.19086C21.1201 6.42548 21.0562 6.86969 21.2909 7.18293C22.2943 8.52292 22.8031 10.2984 22.8031 12.4601Z" fill="#FF9900"/>
<path d="M12.5688 23.2815C10.8076 22.0803 9.23275 19.7765 8.35605 17.1193C8.2334 16.7476 7.83247 16.5457 7.46093 16.6684C7.0892 16.791 6.88736 17.1918 7.01001 17.5635C7.99547 20.5503 9.73054 23.0613 11.7702 24.4526C11.8923 24.5359 12.0313 24.5759 12.1688 24.5759C12.3952 24.5759 12.6177 24.4676 12.7549 24.2665C12.9754 23.943 12.8922 23.5021 12.5688 23.2815Z" fill="#FF9900"/>
<path d="M37.3158 11.574C35.1582 9.47256 32.1351 8.31531 28.8034 8.31531C28.1006 8.31531 27.4058 8.36747 26.7302 8.46896C26.1677 6.42689 25.1501 4.66234 23.709 3.25866C21.5513 1.15725 18.5282 0 15.1965 0C11.8648 0 8.84174 1.15725 6.68411 3.25866C4.37122 5.51126 3.14868 8.69309 3.14868 12.4601C3.14868 16.2966 4.40599 20.2899 6.59831 23.4162C8.46717 26.0815 10.7731 27.7964 13.2355 28.3938C13.0701 28.7044 12.9759 29.0584 12.9759 29.4342V30.9461C12.9759 31.3375 13.2932 31.6548 13.6846 31.6548H14.4457C14.388 32.0907 14.2771 32.3863 14.1549 32.7121C13.9566 33.2407 13.7318 33.8399 13.7318 34.9759C13.7318 36.1126 13.9565 36.712 14.1548 37.241C14.3335 37.7174 14.4877 38.1288 14.4877 39.0085C14.4877 39.8883 14.3335 40.2997 14.1548 40.7761C13.9565 41.3051 13.7318 41.9045 13.7318 43.0412C13.7318 43.4326 14.0491 43.7499 14.4405 43.7499C14.8319 43.7499 15.1492 43.4326 15.1492 43.0412C15.1492 42.1616 15.3034 41.7501 15.482 41.2737C15.6803 40.7448 15.9051 40.1453 15.9051 39.0086C15.9051 37.872 15.6803 37.2724 15.482 36.7436C15.3034 36.2671 15.1492 35.8557 15.1492 34.9761C15.1492 34.0972 15.3034 33.6861 15.482 33.2101C15.6343 32.8041 15.8018 32.3554 15.8716 31.655H16.7083C17.0997 31.655 17.417 31.3377 17.417 30.9463V29.4344C17.417 29.0586 17.3228 28.7046 17.1573 28.394C17.5147 28.3073 17.8688 28.1971 18.2188 28.0638C20.0808 32.6427 23.3094 35.8298 26.8451 36.7041C26.6779 37.0159 26.5827 37.3719 26.5827 37.7498V39.2617C26.5827 39.6531 26.9 39.9704 27.2914 39.9704H28.0526C27.9948 40.4063 27.884 40.7019 27.7618 41.0277C27.5635 41.5562 27.3387 42.1555 27.3387 43.2915C27.3387 43.6829 27.656 44.0002 28.0474 44.0002C28.4388 44.0002 28.7561 43.6829 28.7561 43.2915C28.7561 42.4126 28.9103 42.0015 29.0889 41.5255C29.2412 41.1195 29.4087 40.6709 29.4785 39.9704H30.3152C30.7066 39.9704 31.0239 39.6531 31.0239 39.2617V37.7498C31.0239 37.374 30.9297 37.02 30.7642 36.7094C33.2267 36.112 35.5326 34.397 37.4014 31.7318C39.5937 28.6055 40.851 24.6122 40.851 20.7757C40.8512 17.0084 39.6286 13.8266 37.3158 11.574ZM7.75886 22.6024C5.72983 19.7089 4.56616 16.0122 4.56616 12.4601C4.56616 9.08429 5.64054 6.25359 7.67306 4.27407C9.56451 2.43185 12.2364 1.41738 15.1965 1.41738C18.1567 1.41738 20.8286 2.43185 22.72 4.27398C24.7525 6.25359 25.8269 9.08429 25.8269 12.46C25.8269 16.0122 24.6632 19.7089 22.6342 22.6023C20.5489 25.5761 17.9076 27.2138 15.1965 27.2138C12.4855 27.2138 9.84402 25.5761 7.75886 22.6024ZM15.9997 29.4343V30.2375H14.3933V29.4343C14.3933 28.9914 14.7536 28.6311 15.1965 28.6311C15.6394 28.6311 15.9997 28.9914 15.9997 29.4343ZM29.6066 37.7496V38.5528H28.0002V37.7496C28.0002 37.3067 28.3605 36.9464 28.8034 36.9464C29.2463 36.9464 29.6066 37.3067 29.6066 37.7496ZM36.2411 30.9178C34.1558 33.8914 31.5145 35.5291 28.8034 35.5291C26.8926 35.5291 24.9803 34.6963 23.2734 33.1209C21.7395 31.7052 20.4113 29.7065 19.5047 27.4603C19.9662 27.2012 20.4181 26.9005 20.8579 26.5593C21.8716 29.2451 23.4942 31.4837 25.3769 32.7678C25.4991 32.8512 25.6381 32.8911 25.7756 32.8911C26.002 32.8911 26.2245 32.7828 26.3617 32.5818C26.5823 32.2584 26.4989 31.8175 26.1756 31.597C24.4404 30.4134 22.8867 28.1597 22.0027 25.5522C22.6342 24.9282 23.2343 24.2154 23.7948 23.4162C25.987 20.2899 27.2443 16.2966 27.2443 12.4601C27.2443 11.5567 27.1732 10.6874 27.0344 9.85601C27.6107 9.77408 28.2035 9.7327 28.8034 9.7327C31.7636 9.7327 34.4355 10.7472 36.3269 12.5893C38.3594 14.5689 39.4338 17.3996 39.4338 20.7753C39.4338 24.3276 38.2701 28.0243 36.2411 30.9178Z" fill="#FF9900"/>
<path d="M36.0324 14.6485C35.7978 14.3353 35.3535 14.2714 35.0403 14.506C34.727 14.7406 34.6632 15.1848 34.8978 15.4981C35.9013 16.8381 36.4101 18.6136 36.4101 20.7753C36.4101 21.8325 36.2874 22.9131 36.0453 23.9869C35.9592 24.3688 36.199 24.748 36.5808 24.8341C36.6332 24.8459 36.6857 24.8516 36.7373 24.8516C37.0613 24.8516 37.3537 24.6279 37.428 24.2986C37.6932 23.1227 37.8276 21.9373 37.8276 20.7753C37.8275 18.3005 37.2235 16.2392 36.0324 14.6485Z" fill="#FF9900"/>
<path d="M33.6943 12.5774C33.1852 12.2821 32.6317 12.035 32.049 11.8428C31.6774 11.7204 31.2767 11.9221 31.154 12.2938C31.0314 12.6656 31.2334 13.0662 31.605 13.1889C32.0949 13.3504 32.5584 13.5572 32.983 13.8034C33.095 13.8683 33.2173 13.8992 33.3379 13.8992C33.5823 13.8992 33.8201 13.7726 33.9516 13.546C34.1482 13.2075 34.0329 12.7738 33.6943 12.5774Z" fill="#FF9900"/>
</g>
<defs>
<clipPath id="clip0">
<rect width="44" height="44" fill="white"/>
</clipPath>
</defs>
</svg>
