<svg width="44" height="40" viewBox="0 0 44 40" fill="none" xmlns="http://www.w3.org/2000/svg">
<path d="M9.5672 8.7746C11.4626 7.9551 13.5049 7.53254 15.5688 7.53298C17.6282 7.5321 19.6657 7.95466 21.5559 8.7746C22.6272 8.30997 23.749 7.97225 24.8984 7.76844L21.4608 4.89489C21.2261 4.69867 21.1442 4.37324 21.2578 4.08882L22.6675 0.553453C22.7745 0.284765 23.0339 0.108615 23.3223 0.108704H32.4856C32.774 0.108615 33.0335 0.284765 33.1404 0.553453L34.5502 4.08882C34.6637 4.37324 34.5818 4.69867 34.3472 4.89489L30.7693 7.88581C38.9469 9.66277 44.1402 17.7534 42.3687 25.9567C40.5973 34.16 32.5319 39.3695 24.3543 37.5925C23.3976 37.3847 22.4633 37.0842 21.5643 36.6955C13.8783 40.0189 4.96178 36.4626 1.64881 28.7524C-1.66407 21.0423 1.88107 12.0979 9.5672 8.7746ZM23.4492 2.40174L22.9558 3.64407H24.1921L23.4492 2.40174ZM24.5671 1.52285L25.4369 2.9773L26.3067 1.52285H24.5671ZM27.634 2.05174L26.6817 3.64407H28.9042L27.634 2.05174ZM29.0184 1.52285L30.2871 3.11518L31.2408 1.52285H29.0184ZM32.3587 2.40174L31.6158 3.64407H32.8542L32.3587 2.40174ZM31.9485 5.05822H23.8594L26.397 7.17944H29.411L31.9485 5.05822ZM27.5515 36.523C35.1426 36.5156 41.2905 30.3366 41.2831 22.7217C41.2758 15.1069 35.116 8.93979 27.5248 8.94713C26.066 8.94854 24.6167 9.18294 23.2313 9.64147C23.7645 9.95709 24.2781 10.3049 24.7693 10.683C31.4184 9.12805 38.0652 13.2745 39.6152 19.9443C41.1653 26.6142 37.0318 33.2817 30.3828 34.8366C23.7338 36.3916 17.0871 32.2451 15.537 25.5753C14.421 20.7734 16.247 15.7646 20.1878 12.8176C19.6931 12.5828 19.1812 12.3859 18.6568 12.2287C12.87 17.1535 12.1589 25.8517 17.0683 31.6565C19.6803 34.7449 23.5141 36.5246 27.5515 36.523ZM26.1481 11.8702C32.1337 17.714 32.2633 27.3189 26.4377 33.3232C26.3481 33.4155 26.2576 33.5065 26.1658 33.5964C32.148 34.3695 37.6222 30.1315 38.3929 24.1306C39.1636 18.1296 34.9388 12.6382 28.9567 11.8651C28.4908 11.8049 28.0214 11.7749 27.5516 11.7753C27.0822 11.7772 26.6134 11.8088 26.1481 11.8702ZM21.5602 31.8888C26.5999 28.581 28.0122 21.8011 24.7146 16.7456C23.8918 15.484 22.8177 14.4067 21.5602 13.5813C16.5205 16.8899 15.1087 23.6703 18.4069 28.7257C19.2296 29.9867 20.3031 31.0636 21.5602 31.8888ZM16.956 11.8737H16.9546C10.9719 11.1073 5.50267 15.3511 4.73869 21.3525C3.9747 27.3538 8.20522 32.8402 14.1879 33.6066C15.1144 33.7253 16.0523 33.7242 16.9786 33.6035C10.9908 27.762 10.8574 18.1572 16.6806 12.1506C16.7711 12.0571 16.8629 11.9648 16.956 11.8737ZM5.09737 31.6674C7.70856 34.7487 11.5371 36.5241 15.5687 36.5231C17.0366 36.5258 18.4953 36.2914 19.8888 35.8287C19.3547 35.5127 18.8404 35.1641 18.3487 34.7851C11.6968 36.3414 5.04662 32.1937 3.49521 25.5209C1.9438 18.8482 6.07855 12.1772 12.7305 10.6209C19.3824 9.06468 26.0325 13.2124 27.584 19.885C28.7011 24.6899 26.8739 29.702 22.9304 32.6504C23.4259 32.8863 23.9387 33.0839 24.4642 33.2415C30.2455 28.3114 30.948 19.6134 26.0333 13.8141C21.1187 8.01467 12.4478 7.30999 6.6665 12.2401C0.885265 17.17 0.18269 25.868 5.09737 31.6674Z" fill="#FF9900"/>
</svg>
