<svg width="44" height="44" viewBox="0 0 44 44" fill="none" xmlns="http://www.w3.org/2000/svg">
<g clip-path="url(#clip0)">
<path d="M43.6396 31.0109V24.5163C43.6375 22.5244 42.0234 20.9103 40.0315 20.9082H37.145V15.9506C37.145 15.5521 36.8219 15.229 36.4234 15.229H32.0936C31.6951 15.229 31.372 15.5521 31.372 15.9506V20.9082H24.8774V12.2487C24.8774 11.8501 24.5542 11.527 24.1557 11.527H19.826C19.4275 11.527 19.1043 11.8501 19.1043 12.2487V20.9082H12.6097V15.8603C12.6097 15.4618 12.2866 15.1387 11.8881 15.1387H7.55834C7.15983 15.1387 6.83672 15.4618 6.83672 15.8603V20.9082H3.95021C1.9587 20.9103 0.344552 22.5244 0.342086 24.5163V31.0109C0.317421 32.5595 1.15039 33.9954 2.50696 34.7431V42.5569H1.06371C0.665196 42.5569 0.342086 42.88 0.342086 43.2786C0.342086 43.6771 0.665196 44.0002 1.06371 44.0002H42.918C43.3165 44.0002 43.6396 43.6771 43.6396 43.2786C43.6396 42.88 43.3165 42.5569 42.918 42.5569H41.4747V34.754C42.8105 33.9795 43.6347 32.5546 43.6396 31.0109ZM32.8152 16.6723H35.7017V20.9082H32.8152V16.6723ZM20.5476 12.9703H23.4341V20.9082H20.5476V12.9703ZM8.27997 16.5819H11.1665V20.9082H8.27997V16.5819ZM1.78534 24.5163C1.78534 23.3204 2.75467 22.3514 3.95021 22.3514H40.0315C41.2274 22.3514 42.1964 23.3204 42.1964 24.5163V31.0109C42.1939 32.1571 41.5174 33.1945 40.4695 33.6592C39.3786 34.1187 38.1185 33.8823 37.2687 33.0581C36.7267 32.5144 36.423 31.778 36.4234 31.0109V28.1244C36.4198 27.0346 35.8015 26.0406 34.8258 25.5554L34.7817 25.5314C34.6662 25.4768 34.5471 25.4303 34.4252 25.3923C34.3533 25.3683 34.2874 25.3447 34.2159 25.3274C34.1235 25.3063 34.0302 25.2897 33.9361 25.2781C33.8727 25.2689 33.812 25.2499 33.7476 25.245C33.713 25.245 33.6799 25.2499 33.6461 25.2485C33.6119 25.2471 33.5746 25.2379 33.5369 25.2379C33.4569 25.2379 33.3797 25.2545 33.3004 25.2608C33.2208 25.2675 33.1366 25.271 33.0555 25.2848C32.9308 25.308 32.8075 25.3398 32.687 25.3792C32.6218 25.3993 32.5555 25.4137 32.4921 25.4384C32.3575 25.493 32.2275 25.5582 32.1031 25.6333C32.0577 25.6593 32.0094 25.678 31.9646 25.7055C31.7962 25.8147 31.6394 25.9412 31.4971 26.0829C30.9534 26.6227 30.6486 27.3581 30.6504 28.1244V29.5677C30.6504 31.1617 29.3583 32.4542 27.7639 32.4542C26.1698 32.4542 24.8774 31.1617 24.8774 29.5677V28.1244C24.8738 27.0346 24.2554 26.0406 23.2798 25.5554L23.2357 25.5314C23.1202 25.4768 23.0011 25.4303 22.8791 25.3923C22.8073 25.3683 22.7414 25.3447 22.6698 25.3274C22.5775 25.3063 22.4841 25.2897 22.3901 25.2781C22.3266 25.2689 22.266 25.2499 22.2016 25.245C22.167 25.245 22.1339 25.2499 22.1001 25.2485C22.0659 25.2471 22.0286 25.2379 21.9909 25.2379C21.9109 25.2379 21.8337 25.2545 21.7544 25.2608C21.6748 25.2675 21.5906 25.271 21.5095 25.2848C21.3852 25.308 21.2622 25.3398 21.1417 25.3792C21.0758 25.3993 21.0095 25.4137 20.9461 25.4384C20.8122 25.493 20.6826 25.5579 20.5585 25.6326C20.5124 25.6586 20.4634 25.678 20.4186 25.7048C20.2502 25.8137 20.0934 25.9398 19.9511 26.0815C19.407 26.6216 19.1022 27.3577 19.1043 28.1244V32.4542C19.1043 34.0482 17.8123 35.3407 16.2178 35.3407C14.6238 35.3407 13.3313 34.0482 13.3313 32.4542V28.1244C13.3278 27.0346 12.7094 26.0406 11.7338 25.5554L11.6897 25.5314C11.5741 25.4768 11.455 25.4303 11.3331 25.3923C11.2613 25.3683 11.1954 25.3447 11.1238 25.3274C11.0315 25.3063 10.9381 25.2897 10.8441 25.2781C10.7806 25.2689 10.72 25.2499 10.6556 25.245C10.5914 25.24 10.5171 25.2379 10.4448 25.2379C8.85078 25.2379 7.55834 26.53 7.55834 28.1244V31.0109C7.5594 31.7755 7.25778 32.5095 6.71903 33.0521C6.00375 33.7406 4.99284 34.0274 4.02245 33.8171C3.84979 33.7804 3.68066 33.7283 3.51752 33.6606C3.18771 33.5151 2.88715 33.3111 2.63064 33.0581C2.08872 32.5144 1.78498 31.778 1.78534 31.0109V24.5163ZM3.95021 42.5569V35.2808C4.02245 35.2928 4.09468 35.2959 4.16691 35.3044L4.22223 35.3104C4.85365 35.3756 5.49177 35.3016 6.09148 35.0937C6.27471 35.0292 6.4537 34.9524 6.62671 34.8643C6.66371 34.8463 6.69894 34.8266 6.73735 34.8065C6.87724 34.7304 7.01325 34.6469 7.14432 34.556C7.18625 34.5274 7.22854 34.5007 7.26976 34.4704C8.3744 33.6666 9.01991 32.3767 9.00159 31.0109V28.1244C9.00089 27.7414 9.15346 27.3743 9.42512 27.1047C9.49736 27.0332 9.57664 26.969 9.66191 26.9141C9.67706 26.9049 9.69362 26.8982 9.70877 26.8898C9.77959 26.8464 9.85359 26.8094 9.9304 26.7791C9.95295 26.7707 9.97586 26.7654 9.99841 26.7583C10.0689 26.7344 10.1411 26.7164 10.2148 26.7041C10.2493 26.6984 10.287 26.697 10.3208 26.6932C10.3814 26.6875 10.4424 26.6854 10.5033 26.6868C10.5488 26.6889 10.5942 26.6935 10.639 26.7006C10.6933 26.7069 10.7472 26.7168 10.8 26.7302C10.818 26.7344 10.8345 26.7411 10.8518 26.746C11.4808 26.9754 11.8962 27.5769 11.8881 28.2463V32.4542C11.8881 34.8453 13.8268 36.7839 16.2178 36.7839C18.6093 36.7839 20.5476 34.8453 20.5476 32.4542V28.1244C20.5476 27.6343 20.7971 27.178 21.2093 26.9134C21.2217 26.9056 21.2361 26.9003 21.2484 26.8926C21.3217 26.8478 21.3985 26.8094 21.4785 26.7784C21.499 26.7707 21.5198 26.7661 21.5398 26.7597C21.6107 26.7358 21.6829 26.7168 21.7565 26.7034C21.7911 26.6984 21.8288 26.6963 21.8605 26.6932C21.9211 26.6872 21.9824 26.6851 22.0437 26.6868C22.0892 26.6889 22.1343 26.6935 22.1794 26.7006C22.2336 26.7069 22.2872 26.7168 22.3404 26.7302C22.3584 26.7344 22.3749 26.7411 22.3922 26.746C23.0233 26.9736 23.4415 27.5755 23.4341 28.2463V29.5677C23.4341 31.9588 25.3728 33.8974 27.7639 33.8974C30.1553 33.8974 32.0936 31.9588 32.0936 29.5677V28.1244C32.0929 27.7414 32.2455 27.3743 32.5171 27.1047C32.5894 27.0332 32.6687 26.969 32.7539 26.9141C32.7691 26.9049 32.7856 26.8982 32.8015 26.8887C32.872 26.8461 32.946 26.8094 33.0224 26.7791C33.045 26.7707 33.0686 26.7654 33.0947 26.7583C33.1641 26.7344 33.2352 26.7164 33.3075 26.7041C33.342 26.6984 33.3797 26.697 33.4135 26.6932C33.4741 26.6875 33.5351 26.6854 33.5961 26.6868C33.6415 26.6889 33.687 26.6935 33.7317 26.7006C33.786 26.7069 33.8399 26.7168 33.8927 26.7302C33.9107 26.7344 33.9273 26.7411 33.9445 26.746C34.5731 26.9757 34.9886 27.5772 34.9801 28.2463V31.0109C34.9791 32.161 35.435 33.2646 36.2482 34.0785C36.3913 34.2181 36.5439 34.3477 36.7049 34.4668C36.7518 34.5007 36.8 34.531 36.8494 34.5634C36.9706 34.6462 37.0932 34.723 37.2207 34.7928C37.2715 34.8202 37.3219 34.847 37.373 34.872C37.5185 34.9443 37.6675 35.0084 37.8198 35.0641C37.8501 35.075 37.8797 35.0887 37.9107 35.099C38.3067 35.2339 38.7197 35.3118 39.1376 35.3298H39.1425C39.3437 35.3379 39.5452 35.3319 39.7457 35.3118L39.818 35.3037C39.8902 35.2959 39.9624 35.2928 40.0347 35.2808V42.5569H3.95021Z" fill="#FF9900"/>
<path d="M21.9912 10.0837C23.9831 10.0813 25.5972 8.46712 25.5993 6.4756C25.5993 4.74342 23.0888 1.02078 22.5853 0.292456C22.4433 0.108173 22.2241 0 21.9912 0C21.7586 0 21.5391 0.108173 21.3975 0.292456C20.8936 1.02078 18.3831 4.74342 18.3831 6.4756C18.3855 8.46712 19.9997 10.0813 21.9912 10.0837ZM21.9912 2.00702C23.0296 3.62997 24.1561 5.68738 24.1561 6.4756C24.1561 7.67115 23.1871 8.64048 21.9912 8.64048C20.7956 8.64048 19.8263 7.67115 19.8263 6.4756C19.8263 5.68738 20.9528 3.62997 21.9912 2.00702Z" fill="#FF9900"/>
<path d="M34.2583 13.8761C36.2501 13.8736 37.8642 12.2595 37.8664 10.2679C37.8664 8.53575 35.3558 4.8131 34.8523 4.08478C34.7103 3.9005 34.4912 3.79233 34.2583 3.79233C34.0257 3.79233 33.8062 3.9005 33.6645 4.08478C33.1607 4.8131 30.6501 8.53575 30.6501 10.2679C30.6526 12.2595 32.2667 13.8736 34.2583 13.8761ZM34.2583 5.79935C35.2966 7.42231 36.4231 9.47972 36.4231 10.2679C36.4231 11.4635 35.4541 12.4328 34.2583 12.4328C33.0627 12.4328 32.0934 11.4635 32.0934 10.2679C32.0934 9.47972 33.2199 7.42231 34.2583 5.79935Z" fill="#FF9900"/>
<path d="M9.72311 13.8761C11.715 13.8736 13.3291 12.2595 13.3312 10.2679C13.3312 8.53575 10.8207 4.8131 10.3172 4.08478C10.1752 3.9005 9.95602 3.79233 9.72311 3.79233C9.49056 3.79233 9.27104 3.9005 9.12939 4.08478C8.62552 4.8131 6.11499 8.53575 6.11499 10.2679C6.11746 12.2595 7.7316 13.8736 9.72311 13.8761ZM9.72311 5.79935C10.7615 7.42231 11.888 9.47972 11.888 10.2679C11.888 11.4635 10.919 12.4328 9.72311 12.4328C8.52757 12.4328 7.55824 11.4635 7.55824 10.2679C7.55824 9.47972 8.68472 7.42231 9.72311 5.79935Z" fill="#FF9900"/>
</g>
<defs>
<clipPath id="clip0">
<rect width="44" height="44" fill="white"/>
</clipPath>
</defs>
</svg>
