<svg width="44" height="44" viewBox="0 0 44 44" fill="none" xmlns="http://www.w3.org/2000/svg">
<path d="M43.3557 20.8448C42.8711 20.7116 42.4601 21.0098 42.2947 21.4472C42.0109 22.1981 40.9432 22.6472 40.1708 22.7479C39.0074 22.8997 37.8738 22.3903 36.846 21.9135C35.6268 21.348 34.3701 20.8083 32.9994 20.8198C31.6201 20.8314 30.2736 21.3825 29.1503 22.1571C27.8859 23.029 26.8701 24.1669 25.8762 25.3249C25.573 25.6782 25.5291 26.1976 25.8762 26.5447C26.1866 26.8551 26.7914 26.8997 27.096 26.5447C28.6919 24.685 30.7952 22.2317 33.5381 22.5694C34.8332 22.7288 35.9932 23.4515 37.1819 23.934C38.4037 24.4299 39.744 24.6643 41.039 24.3239C42.3227 23.9866 43.4792 23.1723 43.958 21.9057C44.1229 21.47 43.7752 20.96 43.3557 20.8448Z" fill="#FF9900"/>
<path d="M17.7483 11.7353C18.5637 10.6059 19.4329 9.39963 19.6811 7.99644C19.9218 6.63528 19.5697 5.26449 18.8115 4.11843C17.937 2.79671 16.6677 1.84555 15.4148 0.908832C15.0414 0.629707 14.4511 0.848246 14.2347 1.21821C13.9771 1.65872 14.1699 2.11849 14.5442 2.3983C16.4719 3.83956 18.8826 5.84482 17.7233 8.52857C16.6937 10.912 14.0148 12.8291 14.3497 15.6877C14.5111 17.0651 15.3285 18.3105 16.721 18.6785C17.7954 18.9623 18.2536 17.2988 17.1796 17.015C16.3095 16.7851 15.9659 15.8345 16.0588 15.0009C16.194 13.7906 17.055 12.6955 17.7483 11.7353Z" fill="#FF9900"/>
<path d="M30.129 13.83C29.9891 12.6834 29.3401 11.645 28.3703 11.0142C27.83 10.6628 27.2421 10.4779 26.6456 10.4305C26.9406 9.45829 27.4926 8.56497 28.2997 7.94665C28.6689 7.66383 28.8652 7.20415 28.6091 6.76656C28.3966 6.40321 27.8012 6.17204 27.4291 6.4571C26.0522 7.51207 25.1325 9.02517 24.8031 10.6979C23.6772 11.1073 22.6759 11.9343 22.099 12.9615C20.5481 15.7223 21.5281 18.9497 23.0884 21.4594C23.6734 22.4002 25.1664 21.5351 24.578 20.5887C23.5602 18.9517 22.7023 16.9892 23.1467 15.0242C23.3624 14.0706 23.9095 13.1769 24.6908 12.6476C24.7661 13.5941 25.032 14.5287 25.4946 15.3585C26.1367 16.5102 27.3557 17.4664 28.7025 16.8224C29.7898 16.3025 30.2675 14.9653 30.129 13.83ZM28.2091 15.0195C27.7396 15.6894 27.2463 14.9589 26.9842 14.4877C26.6272 13.8462 26.4341 13.1148 26.3996 12.3849C26.3961 12.3093 26.3957 12.2331 26.3951 12.1569C26.4377 12.1586 26.4802 12.1605 26.5232 12.1641C27.7872 12.2703 29.0143 13.8705 28.2091 15.0195Z" fill="#FF9900"/>
<path d="M33.6354 16.1853C32.5255 16.1853 32.5236 17.9104 33.6354 17.9104C34.7454 17.9104 34.7472 16.1853 33.6354 16.1853Z" fill="#FF9900"/>
<path d="M34.7113 13.6896C33.6014 13.6896 33.5996 15.4147 34.7113 15.4147C35.8213 15.4147 35.8232 13.6896 34.7113 13.6896Z" fill="#FF9900"/>
<path d="M36.3969 15.8904C35.2869 15.8904 35.2851 17.6155 36.3969 17.6155C37.5069 17.6155 37.5087 15.8904 36.3969 15.8904Z" fill="#FF9900"/>
<path d="M7.70501 8.83188C6.59504 8.83188 6.59315 10.557 7.70501 10.557C8.81507 10.557 8.81688 8.83188 7.70501 8.83188Z" fill="#FF9900"/>
<path d="M8.78091 6.3363C7.67094 6.3363 7.66913 8.06141 8.78091 8.06141C9.89097 8.06133 9.89286 6.3363 8.78091 6.3363Z" fill="#FF9900"/>
<path d="M10.4662 8.53711C9.35624 8.53711 9.35444 10.2622 10.4662 10.2622C11.5762 10.2622 11.578 8.53711 10.4662 8.53711Z" fill="#FF9900"/>
<path d="M24.3494 30.4587L12.895 19.0042C12.6988 18.8082 12.4205 18.7182 12.1466 18.7628C11.8729 18.8074 11.6372 18.9807 11.5133 19.2289L10.4835 21.2912L0.090875 42.1059C-0.0748984 42.4378 -0.00975781 42.8387 0.252695 43.1011C0.418211 43.2667 0.638898 43.3538 0.862766 43.3538C0.993562 43.3538 1.12539 43.324 1.24777 43.2628L24.1248 31.8403C24.3729 31.7165 24.5464 31.4808 24.5908 31.207C24.6354 30.9332 24.5455 30.6549 24.3494 30.4587ZM2.78802 40.5656L6.51565 33.1L7.7742 38.0761L2.78802 40.5656ZM17.0225 33.4583L15.5539 29.8789C15.373 29.4383 14.8693 29.2275 14.4285 29.4083C13.9878 29.5892 13.7771 30.093 13.9579 30.5337L15.475 34.231L9.35408 37.2871L7.69669 30.7343L11.1787 23.7604L12.1368 26.0955C12.2737 26.429 12.5956 26.6308 12.9351 26.6308C13.0441 26.6308 13.155 26.61 13.2622 26.566C13.7029 26.3852 13.9136 25.8814 13.7328 25.4407L12.2023 21.7106L12.5218 21.0708L22.2829 30.8319L17.0225 33.4583Z" fill="#FF9900"/>
<path d="M40.4425 28.651C38.5182 28.651 36.9526 30.2165 36.9526 32.1408C36.9526 34.0655 38.5182 35.6315 40.4425 35.6315C42.3673 35.6315 43.9332 34.0655 43.9332 32.1408C43.9332 30.2165 42.3673 28.651 40.4425 28.651ZM40.4425 33.9064C39.4694 33.9064 38.6777 33.1143 38.6777 32.1408C38.6777 31.1677 39.4695 30.3761 40.4425 30.3761C41.416 30.3761 42.2081 31.1677 42.2081 32.1408C42.2081 33.1143 41.4161 33.9064 40.4425 33.9064Z" fill="#FF9900"/>
<path d="M39.5169 4.3679L36.0478 0.898774C35.886 0.73704 35.6666 0.646118 35.4378 0.646118C35.2091 0.646118 34.9897 0.73704 34.8279 0.89886L31.3597 4.36799C31.023 4.70477 31.023 5.25091 31.3597 5.58778L34.828 9.05605C34.9964 9.22449 35.2172 9.3087 35.4379 9.3087C35.6586 9.3087 35.8794 9.22449 36.0477 9.05613L39.5168 5.58787C39.6787 5.42613 39.7696 5.20674 39.7696 4.97788C39.7695 4.74912 39.6786 4.52972 39.5169 4.3679ZM35.4381 7.22644L33.1895 4.9778L35.4381 2.72864L37.6872 4.9778L35.4381 7.22644Z" fill="#FF9900"/>
<path d="M13.7721 27.1466C12.6622 27.1466 12.6603 28.8717 13.7721 28.8717C14.8821 28.8717 14.8839 27.1466 13.7721 27.1466Z" fill="#FF9900"/>
</svg>
