<svg width="42" height="44" viewBox="0 0 42 44" fill="none" xmlns="http://www.w3.org/2000/svg">
<g clip-path="url(#clip0)">
<path d="M40.299 25.5079C39.4396 24.8533 38.2271 24.5072 36.7917 24.5072C35.6255 24.5072 34.5889 24.7234 33.7429 25.1098C33.521 24.8359 33.2847 24.57 33.0377 24.3136C33.85 22.9151 34.3093 21.3299 34.3093 19.6511C34.3093 17.3543 33.4502 15.2327 32.0027 13.5254C32.5465 13.0786 33.1058 12.9537 33.8987 13.4418C34.2065 13.6315 34.5496 13.9131 34.9407 14.3042C34.9803 14.3438 35.0182 14.3828 35.0555 14.4214C36.3647 15.7769 36.2204 16.4808 35.8628 17.0388C35.8581 17.0461 35.8545 17.0539 35.8501 17.0616C35.7987 17.1374 35.7417 17.2126 35.6792 17.2878C35.4526 17.5601 35.4892 17.9643 35.7615 18.1912C35.8813 18.2912 36.027 18.3399 36.1717 18.3399C36.3553 18.3399 36.5379 18.2613 36.6648 18.1093C36.7692 17.9841 36.8602 17.8595 36.9397 17.7357C36.9408 17.734 36.9421 17.7326 36.9431 17.731C36.9448 17.7286 36.9458 17.7266 36.9471 17.7242C36.9807 17.6715 37.0119 17.6192 37.0411 17.5668C37.0478 17.555 37.0542 17.5436 37.0606 17.5319C37.0858 17.4862 37.1089 17.4406 37.1308 17.3949C37.1408 17.3741 37.1506 17.353 37.16 17.3322C37.1761 17.2966 37.1912 17.2613 37.2053 17.2261C37.8783 15.5674 36.5973 14.1545 35.9555 13.5053C35.9437 13.4932 35.9323 13.4818 35.9209 13.4703C35.9135 13.463 35.9061 13.4556 35.8988 13.4482C35.881 13.4304 35.8638 13.4129 35.8477 13.3972C35.1905 12.7395 33.2475 10.7976 31.1148 12.5982C29.0221 10.6579 26.0771 9.4474 22.8198 9.4474C19.5623 9.4474 16.6172 10.6579 14.5245 12.5982C12.3919 10.7976 10.4489 12.7395 9.79161 13.3972C9.10444 14.084 7.01408 16.1747 9.25786 18.4185C9.91044 19.0707 10.6057 19.4145 11.3331 19.4474C11.3314 19.5152 11.3301 19.583 11.3301 19.6511C11.3301 21.297 11.7782 22.8912 12.6014 24.3142C12.3546 24.5704 12.1183 24.8359 11.8967 25.1102C11.0505 24.7238 10.0138 24.5072 8.84764 24.5072C8.26488 24.5072 7.71938 24.5653 7.21852 24.6771V15.0155C7.70964 15.0132 8.1494 14.7581 8.39512 14.3321C8.64219 13.9041 8.64219 13.3931 8.39512 12.9651L8.36088 12.9057C11.1475 12.1199 13.1526 9.54341 13.1526 6.57555C13.1526 2.94973 10.2028 0 6.57701 0C4.53902 0 2.64941 0.922148 1.39325 2.52978C1.17505 2.80908 1.22439 3.21224 1.50335 3.43011C1.78265 3.64831 2.18582 3.59896 2.40402 3.31967C3.41546 2.02523 4.93648 1.28302 6.57701 1.28302C9.49519 1.28302 11.8695 3.65737 11.8695 6.57555C11.8695 9.07948 10.0968 11.2363 7.68513 11.7506C7.42934 11.3931 7.02449 11.1833 6.57701 11.1833C6.12953 11.1833 5.72469 11.3931 5.46889 11.7506C3.05728 11.2363 1.28448 9.07948 1.28448 6.57555C1.28448 6.30028 1.30563 6.02401 1.34759 5.75411C1.40231 5.40398 1.16263 5.07601 0.812498 5.02163C0.462371 4.96792 0.134399 5.20693 0.0800169 5.55672C0.0279846 5.89174 0.00146484 6.23449 0.00146484 6.57555C0.00146484 9.54374 2.00656 12.1199 4.79314 12.9057L4.7589 12.9651C4.51183 13.3931 4.51183 13.9044 4.7589 14.3324C5.00463 14.7581 5.44439 15.0132 5.9355 15.0155V25.134C5.72234 25.2448 5.52327 25.369 5.34066 25.5079C4.42589 26.2048 3.9425 27.2089 3.9425 28.4114C3.9425 29.6135 4.42589 30.6175 5.34066 31.3144C6.19969 31.9694 7.41255 32.3151 8.84764 32.3151C9.03227 32.3151 9.21354 32.3094 9.39146 32.2987C9.40254 32.7713 9.44517 33.244 9.51835 33.7099C7.85567 34.9067 6.77104 37.2585 6.77104 39.4288C6.77104 42.2912 8.67576 43.9999 11.8659 43.9999C13.7454 43.9999 15.1778 43.4067 16.0385 42.3342C18.0899 43.4 20.4247 43.962 22.8198 43.962C25.2398 43.962 27.5954 43.389 29.6619 42.3023C30.5284 43.3285 31.9376 43.8952 33.7735 43.8952C36.9639 43.8952 38.8686 42.1865 38.8686 39.3244C38.8686 37.1598 37.7901 34.8154 36.1351 33.6153C36.1995 33.1802 36.2378 32.7394 36.2482 32.2987C36.4261 32.3094 36.6071 32.3155 36.7917 32.3155C38.2271 32.3155 39.4396 31.9694 40.299 31.3148C41.2134 30.6175 41.6972 29.6138 41.6972 28.4114C41.6972 27.2089 41.2134 26.2048 40.299 25.5079ZM5.87004 13.6909C5.84554 13.6486 5.86333 13.618 5.87004 13.6066L6.50417 12.5079C6.51088 12.4965 6.52834 12.4659 6.57701 12.4659C6.62569 12.4659 6.64314 12.4965 6.64986 12.5079L7.28398 13.6066C7.2907 13.618 7.30849 13.6486 7.28398 13.6909C7.25981 13.7329 7.22456 13.7329 7.21114 13.7329H5.94289C5.92946 13.7329 5.89421 13.7329 5.87004 13.6909ZM10.1652 17.5111C9.31862 16.6645 9.13466 15.8685 10.6986 14.3042C12.0971 12.906 12.8817 12.9054 13.637 13.5254C12.5074 14.8578 11.7363 16.4429 11.4523 18.1667C11.1139 18.1647 10.6819 18.0277 10.1652 17.5111ZM5.22551 28.4114C5.22551 27.7087 5.47393 27.1283 5.9355 26.6929V28.8709C5.9355 29.2254 6.22286 29.5124 6.57701 29.5124C6.93117 29.5124 7.21852 29.2254 7.21852 28.8709V25.9991C7.68916 25.8621 8.23466 25.7899 8.84764 25.7899C10.8326 25.7899 12.9689 26.6104 12.9689 28.411C12.9689 30.212 10.8326 31.0321 8.84764 31.0321C6.57936 31.0321 5.22551 30.0526 5.22551 28.4114ZM11.8659 42.7169C10.127 42.7169 8.05373 42.1466 8.05373 39.4288C8.05373 38.184 8.49583 36.8295 9.23671 35.8046C9.98732 34.7664 10.9212 34.1943 11.8659 34.1943C12.8108 34.1943 13.7447 34.7664 14.4953 35.8046C15.2359 36.8295 15.678 38.184 15.678 39.4288C15.678 42.1466 13.6051 42.7169 11.8659 42.7169ZM37.5856 39.3241C37.5856 42.0418 35.5127 42.6125 33.7735 42.6125C32.0346 42.6125 29.9614 42.0418 29.9614 39.3241C29.9614 38.0796 30.4038 36.7248 31.1443 35.7002C31.895 34.662 32.8289 34.0899 33.7735 34.0899C34.7185 34.0899 35.6524 34.662 36.403 35.7002C37.1435 36.7248 37.5856 38.0796 37.5856 39.3241ZM34.9192 32.9889C34.5533 32.8714 34.1703 32.8069 33.7735 32.8069C30.8573 32.8069 28.6783 36.2478 28.6783 39.3241C28.6783 40.0193 28.7918 40.6457 29.0073 41.1965C27.1385 42.1674 25.0096 42.679 22.8198 42.679C20.6439 42.679 18.5257 42.1734 16.6646 41.214C16.8589 40.6843 16.961 40.0874 16.961 39.4288C16.961 36.3522 14.782 32.9117 11.8659 32.9117C11.4724 32.9117 11.0924 32.9748 10.7292 33.0906C10.6936 32.7683 10.6745 32.4437 10.6718 32.1194C12.8464 31.6266 14.252 30.2385 14.252 28.411C14.252 27.3677 13.7927 26.468 12.9951 25.7956C13.1046 25.6644 13.2177 25.5348 13.3338 25.4079C14.119 26.4288 15.116 27.3284 16.2936 28.0508C16.5954 28.2365 16.9905 28.1418 17.1758 27.8397C17.3611 27.5379 17.2665 27.1428 16.9647 26.9575C14.2399 25.2857 12.6131 22.5542 12.6131 19.6511C12.6131 14.7322 17.1916 10.7304 22.8198 10.7304C28.4477 10.7304 33.0262 14.7322 33.0262 19.6511C33.0262 24.5697 28.4477 28.5715 22.8198 28.5715C21.6906 28.5715 20.5811 28.4114 19.5223 28.0955C19.1829 27.9941 18.8258 28.1874 18.7244 28.5268C18.623 28.8662 18.816 29.2237 19.1558 29.3248C20.3334 29.6762 21.566 29.8545 22.8198 29.8545C26.7535 29.8545 30.2309 28.0898 32.3028 25.4049C32.42 25.5331 32.5338 25.6634 32.6442 25.7956C31.8466 26.468 31.3874 27.368 31.3874 28.411C31.3874 30.2382 32.7926 31.6263 34.9665 32.1194C34.9645 32.4098 34.9484 32.7002 34.9192 32.9889ZM36.7917 31.0321C34.8068 31.0321 32.6704 30.212 32.6704 28.411C32.6704 26.6104 34.8068 25.7899 36.7917 25.7899C39.06 25.7899 40.4142 26.7698 40.4142 28.411C40.4142 30.0526 39.06 31.0321 36.7917 31.0321Z" fill="#FF9900"/>
<path d="M28.6398 22.8775C28.6398 21.3283 28.0138 20.104 26.8298 19.3376C25.8469 18.7011 24.4974 18.3785 22.8186 18.3785C21.1398 18.3785 19.7903 18.7011 18.8074 19.3376C17.623 20.104 16.9973 21.3283 16.9973 22.8775C16.9973 25.8934 19.3368 27.9196 22.8186 27.9196C26.3007 27.9196 28.6398 25.8934 28.6398 22.8775ZM22.8186 24.0675C22.0582 24.0675 21.3157 22.8859 21.3157 22.1997C21.3157 22.0161 21.3157 21.7083 22.8186 21.7083C24.3215 21.7083 24.3215 22.0161 24.3215 22.1997C24.3215 22.8859 23.5786 24.0675 22.8186 24.0675ZM18.28 22.8775C18.28 20.7435 19.8071 19.6612 22.8186 19.6612C25.8301 19.6612 27.3568 20.7435 27.3568 22.8775C27.3568 25.3724 25.3806 26.4194 23.4601 26.6054V25.2485C24.7347 24.8416 25.6045 23.2934 25.6045 22.1997C25.6045 21.4958 25.2416 20.956 24.5826 20.6797C24.1627 20.5038 23.6185 20.4253 22.8186 20.4253C22.0183 20.4253 21.4741 20.5038 21.0542 20.6797C20.3952 20.956 20.0323 21.4958 20.0323 22.1997C20.0323 23.2934 20.9021 24.8416 22.1767 25.2485V26.6054C20.2566 26.4194 18.28 25.3724 18.28 22.8775Z" fill="#FF9900"/>
<path d="M27.4428 17.0029C27.4428 17.7035 26.8748 18.2715 26.1742 18.2715C25.4736 18.2715 24.9053 17.7035 24.9053 17.0029C24.9053 16.3019 25.4736 15.7339 26.1742 15.7339C26.8748 15.7339 27.4428 16.3019 27.4428 17.0029Z" fill="#FF9900"/>
<path d="M20.8323 17.0029C20.8323 17.7035 20.2643 18.2715 19.5638 18.2715C18.8632 18.2715 18.2952 17.7035 18.2952 17.0029C18.2952 16.3019 18.8632 15.7339 19.5638 15.7339C20.2643 15.7339 20.8323 16.3019 20.8323 17.0029Z" fill="#FF9900"/>
</g>
<defs>
<clipPath id="clip0">
<rect width="41.7656" height="44" fill="white"/>
</clipPath>
</defs>
</svg>
