<svg width="44" height="43" viewBox="0 0 44 43" fill="none" xmlns="http://www.w3.org/2000/svg">
<g clip-path="url(#clip0)">
<path d="M15.7558 23.5094V29.1086C15.7558 29.5593 16.1212 29.9248 16.5722 29.9248C17.0232 29.9248 17.3886 29.5593 17.3886 29.1086V24.0211L14.8026 21.2915C14.2377 20.6951 14.0149 19.8622 14.2067 19.0635L14.829 16.4702H14.1016L14.6472 15.6427C14.7622 15.6953 14.8833 15.7368 15.0103 15.7626C15.1416 15.3751 15.3641 15.0368 15.6506 14.7697C16.0259 14.42 16.5108 14.1942 17.0418 14.1383C17.1213 14.1299 17.2015 14.1245 17.2832 14.1241V11.4527C17.2832 11.0019 16.9177 10.6365 16.467 10.6365C16.0163 10.6365 15.6509 11.0022 15.6509 11.4527V12.4377C15.5533 12.4201 15.4531 12.4094 15.3503 12.4094C15.2469 12.4094 15.1463 12.4201 15.048 12.4379V10.1136C15.048 9.66284 14.6826 9.29745 14.2316 9.29745C13.7809 9.29745 13.4154 9.66284 13.4154 10.1136V14.5456L13.0201 15.1455L12.6248 14.5456V10.1136C12.6248 9.66284 12.2593 9.29745 11.8086 9.29745C11.3579 9.29745 10.9924 9.66284 10.9924 10.1136V12.4379C10.8942 12.4203 10.7935 12.4094 10.6901 12.4094C10.4816 12.4094 10.2827 12.4489 10.0981 12.5179V8.72239C10.0981 8.27161 9.73268 7.90622 9.28175 7.90622C8.83081 7.90622 8.46558 8.27168 8.46558 8.72239V13.1544L7.96448 13.9147V10.1136C7.96448 9.66284 7.59901 9.29745 7.14831 9.29745C6.6976 9.29745 6.33213 9.66284 6.33213 10.1136V11.1267C6.14755 11.0578 5.94886 11.0181 5.74018 11.0181C4.80482 11.0181 4.04654 11.7764 4.04654 12.7117C4.04654 13.6471 4.80474 14.4054 5.74018 14.4054C5.94864 14.4054 6.14755 14.3659 6.33213 14.2969V14.7903C6.33213 14.8896 6.35229 14.9869 6.38707 15.0788H5.74018H4.2828L3.01425 13.1542V8.72254C3.01425 8.27176 2.64879 7.90637 2.19808 7.90637C1.74737 7.90637 1.38184 8.27168 1.38184 8.72239V13.3992C1.38184 13.559 1.42866 13.715 1.51656 13.8483L3.7179 17.1882V20.7565C3.70744 20.8088 3.70168 20.8628 3.70168 20.9183V27.7174C3.70168 28.1682 4.06707 28.5336 4.51786 28.5336C4.96864 28.5336 5.33425 28.1682 5.33425 27.7174V22.1181H5.74003H6.1458V27.7173C6.1458 28.1681 6.51127 28.5335 6.9622 28.5335C7.41314 28.5335 7.7786 28.1681 7.7786 27.7173V20.9182C7.7786 20.8628 7.77284 20.8087 7.76239 20.7563V17.205L8.66827 18.5793V22.1475C8.65782 22.1999 8.65206 22.2539 8.65206 22.3094V29.1086C8.65206 29.5593 9.01744 29.9248 9.46846 29.9248C9.91924 29.9248 10.2846 29.5593 10.2846 29.1086V23.5094H10.6904H11.0962V29.1086C11.0962 29.5593 11.4616 29.9248 11.9123 29.9248C12.3631 29.9248 12.7285 29.5593 12.7285 29.1086V22.3094C12.7285 22.254 12.7227 22.2 12.7123 22.1475V18.5793L13.0205 18.1116L13.3286 18.5793V22.1475C13.3181 22.1999 13.3124 22.2539 13.3124 22.3094V29.1086C13.3124 29.5593 13.6778 29.9248 14.1285 29.9248C14.5793 29.9248 14.9449 29.5593 14.9449 29.1086V23.5094H15.3507H15.7558ZM10.6894 16.4702H9.23227L8.73352 15.7133L9.23022 14.9597C9.52468 15.4599 10.067 15.7965 10.6893 15.7965C10.9405 15.7965 11.1777 15.7404 11.3922 15.6425L11.9377 16.4701H10.6894V16.4702Z" fill="#FF9900"/>
<path d="M19.1613 14.9858C19.2452 14.8516 19.3352 14.7217 19.4338 14.5988C19.5256 14.4842 19.6218 14.3736 19.7253 14.2698C19.9068 14.0873 20.1056 13.9224 20.3186 13.7768C20.5516 13.6178 20.8023 13.4833 21.0665 13.3748V12.0659C21.0665 11.6151 20.701 11.2497 20.2503 11.2497C20.0493 11.2497 19.8675 11.3253 19.7253 11.4456V10.1149C19.7253 9.66409 19.3599 9.29871 18.9089 9.29871C18.458 9.29871 18.0928 9.66409 18.0928 10.1149V14.2547C18.2801 14.318 18.4543 14.4037 18.6154 14.5067C18.8226 14.6389 19.0057 14.8009 19.1613 14.9858Z" fill="#FF9900"/>
<path d="M18.5508 25.3204L17.9128 24.647V29.5214L18.5508 28.7418V25.3204Z" fill="#FF9900"/>
<path d="M41.615 8.53517C41.1643 8.53517 40.7988 8.90063 40.7988 9.35134V13.7834L39.5304 15.7079H38.0733H37.4264C37.4612 15.6158 37.4813 15.5187 37.4813 15.4194V14.926C37.6659 14.9948 37.8647 15.0345 38.0731 15.0345C39.0084 15.0345 39.7666 14.2763 39.7666 13.3409C39.7666 12.4055 39.0084 11.6473 38.0731 11.6473C37.8647 11.6473 37.6656 11.6867 37.4813 11.7558V10.7427C37.4813 10.2919 37.116 9.92655 36.6649 9.92655C36.2143 9.92655 35.8488 10.2919 35.8488 10.7427V14.5441L35.3474 13.7837V9.35127C35.3474 8.90048 34.982 8.5351 34.5313 8.5351C34.0805 8.5351 33.7148 8.90056 33.7148 9.35127V13.1468C33.5303 13.0779 33.3315 13.0383 33.1229 13.0383C33.0196 13.0383 32.919 13.0489 32.8206 13.0667V10.7426C32.8206 10.2918 32.4552 9.9264 32.0044 9.9264C31.5538 9.9264 31.1883 10.2918 31.1883 10.7426V15.1746L30.7928 15.7744L30.7307 15.6803V15.8686V18.6467V18.835L30.7928 18.7409L31.1009 19.2085V22.7768C31.0906 22.8291 31.0848 22.8832 31.0848 22.9386V29.7379C31.0848 30.1886 31.4502 30.554 31.9011 30.554C32.3519 30.554 32.7173 30.1886 32.7173 29.7379V24.1386H33.1231H33.5288V29.7379C33.5288 30.1886 33.8942 30.554 34.3449 30.554C34.7957 30.554 35.1614 30.1886 35.1614 29.7379V22.9386C35.1614 22.8832 35.1556 22.8291 35.1451 22.7767V19.2085L36.051 17.8341V21.3856C36.0406 21.4379 36.0348 21.4919 36.0348 21.5474V28.3466C36.0348 28.7973 36.4002 29.1627 36.8511 29.1627C37.3021 29.1627 37.6673 28.7973 37.6673 28.3466V22.7473H38.0731H38.4788V28.3466C38.4788 28.7973 38.8443 29.1627 39.2952 29.1627C39.7462 29.1627 40.1114 28.7973 40.1114 28.3466V21.5474C40.1114 21.492 40.1056 21.438 40.0951 21.3856V17.8172L42.2964 14.4774C42.3843 14.344 42.4312 14.188 42.4312 14.0283V9.35142C42.4314 8.90086 42.0661 8.53517 41.615 8.53517ZM34.5806 17.0993H33.1235H31.8754L32.421 16.2718C32.6351 16.3699 32.8727 16.4258 33.1238 16.4258C33.7461 16.4258 34.2887 16.0891 34.5829 15.589L35.0796 16.3426L34.5806 17.0993Z" fill="#FF9900"/>
<path d="M30.4951 19.9451C30.4495 20.0388 30.4001 20.1306 30.3421 20.2185L27.137 25.0815V30.1412C27.1537 30.2566 27.1623 30.3731 27.1623 30.4883V30.5275C27.1917 30.5307 27.2207 30.5366 27.2511 30.5366C27.7018 30.5366 28.0672 30.1711 28.0672 29.7204V24.1211H28.473H28.8788V29.7204C28.8788 30.1711 29.2441 30.5366 29.6951 30.5366C30.146 30.5366 30.5112 30.1711 30.5112 29.7204V22.9212C30.5112 22.8658 30.5055 22.8117 30.4949 22.7593V19.9451H30.4951Z" fill="#FF9900"/>
<path d="M25.7382 10.729C25.7382 10.2782 25.3728 9.91278 24.922 9.91278C24.4714 9.91278 24.1057 10.2782 24.1057 10.729V10.8359C23.9634 10.7153 23.7818 10.6399 23.5808 10.6399C23.13 10.6399 22.7646 11.0056 22.7646 11.4561V13.0801C23.2365 13.097 23.688 13.1935 24.1057 13.3588C24.2049 13.398 24.3017 13.4421 24.397 13.4886C24.9147 13.7423 25.3724 14.0991 25.7381 14.5376V10.729H25.7382Z" fill="#FF9900"/>
<path d="M8.09257 7.14773C8.57947 6.50872 8.60129 5.60995 8.19872 4.90691C7.76327 4.14658 5.86021 2.69837 6.91123 1.8559C7.49459 1.38822 6.66868 0.573411 6.09139 1.03602C5.40695 1.58463 5.34179 2.42679 5.57993 3.2244C5.89734 4.28707 7.98247 5.39286 7.09164 6.56244C6.63807 7.15743 7.64575 7.73385 8.09257 7.14773Z" fill="#FF9900"/>
<path d="M38.3205 2.20056C39.0643 2.12524 38.8141 0.99233 38.0783 1.06674C37.2054 1.1551 36.6932 1.82631 36.4595 2.62536C36.1482 3.68985 37.2971 5.75168 35.9137 6.24877C35.2098 6.50171 35.742 7.53331 36.4356 7.28408C37.1917 7.01235 37.6985 6.26983 37.7429 5.46109C37.7905 4.58634 36.9804 2.33628 38.3205 2.20056Z" fill="#FF9900"/>
<path d="M15.5962 7.01987C15.7207 7.82029 16.299 8.50893 17.0783 8.70397C17.7933 8.88295 18.2204 7.80362 17.4949 7.62183C16.0688 7.26455 17.0071 5.09883 16.5917 4.07048C16.2798 3.29856 15.7032 2.68153 14.8258 2.68039C14.0862 2.67948 13.9497 3.83164 14.6974 3.83255C16.0439 3.83467 15.4617 6.15437 15.5962 7.01987Z" fill="#FF9900"/>
<path d="M29.7917 2.86207C30.1325 2.10243 30.1785 1.25913 29.5716 0.625421C29.0602 0.0909798 28.1343 0.790535 28.6514 1.33058C29.5828 2.30354 27.5062 3.48979 26.9747 4.18632C26.4834 4.83041 26.3872 5.72432 26.7862 6.42176C27.1522 7.06145 28.2266 6.62233 27.8554 5.97287C27.1255 4.69681 29.3378 3.8742 29.7917 2.86207Z" fill="#FF9900"/>
<path d="M19.3246 4.08311C19.635 4.83139 20.3601 5.36333 21.1633 5.3681C21.9004 5.37272 22.0597 4.22291 21.3116 4.21806C19.8414 4.20874 20.2402 1.88237 19.5928 0.981863C19.1068 0.305723 18.4005 -0.157111 17.548 0.0497547C16.829 0.224113 16.9692 1.37582 17.6959 1.19957C19.0053 0.882371 18.9888 3.27391 19.3246 4.08311Z" fill="#FF9900"/>
<path d="M11.0914 7.25336C12.1381 7.25336 12.1381 5.63025 11.0914 5.63025C10.0447 5.63025 10.0447 7.25336 11.0914 7.25336Z" fill="#FF9900"/>
<path d="M3.36487 4.93234C4.41151 4.93234 4.41151 3.30923 3.36487 3.30923C2.31816 3.30923 2.31816 4.93234 3.36487 4.93234Z" fill="#FF9900"/>
<path d="M25.1668 1.22794C24.1202 1.22794 24.1202 2.85104 25.1668 2.85104C26.2135 2.85104 26.2135 1.22794 25.1668 1.22794Z" fill="#FF9900"/>
<path d="M23.6092 7.01366C24.6559 7.01366 24.6559 5.39056 23.6092 5.39056C22.5626 5.39056 22.5626 7.01366 23.6092 7.01366Z" fill="#FF9900"/>
<path d="M32.5935 4.58794C33.64 4.58794 33.64 2.96484 32.5935 2.96484C31.547 2.96484 31.5469 4.58794 32.5935 4.58794Z" fill="#FF9900"/>
<path d="M41.8774 4.71674C40.8309 4.71674 40.8309 6.33983 41.8774 6.33983C42.9239 6.33983 42.924 4.71674 41.8774 4.71674Z" fill="#FF9900"/>
<path d="M26.3733 24.0422L29.3127 19.5826C29.4484 19.3769 29.5205 19.136 29.5205 18.8898V17.0842V16.8727V15.9953V13.4388V10.004C29.5205 9.9732 29.5181 9.94281 29.5159 9.9125C29.4688 9.26001 28.9256 8.74481 28.2609 8.74481C27.5652 8.74481 27.0017 9.30873 27.0017 10.0041V11.3068V13.7792V15.6546V17.0841V18.512L26.3894 19.4406L25.0447 21.4813H22.0089H21.7311H20.0257L17.921 19.2595L18.3383 17.5207L18.5021 16.8387C18.5026 16.8364 18.5028 16.8339 18.5035 16.8315C18.5111 16.7983 18.5172 16.7652 18.522 16.7322C18.5236 16.7158 18.5264 16.6998 18.5283 16.6833C18.5445 16.5389 18.5351 16.3963 18.5032 16.2602C18.4731 16.131 18.4237 16.0077 18.356 15.8952C18.1879 15.6163 17.9129 15.4021 17.5713 15.32C17.5632 15.3181 17.5553 15.3174 17.5472 15.3156C17.4561 15.2954 17.3652 15.2845 17.2755 15.2845C17.2707 15.2845 17.266 15.2857 17.2612 15.2857C16.6984 15.2921 16.1902 15.6782 16.0529 16.2502L15.9997 16.4717L15.9177 16.8139L15.3125 19.3355C15.213 19.7498 15.3299 20.1864 15.6228 20.4958L17.3667 22.3369L17.9649 22.9684L19.7457 24.8485V24.8501V29.1457L19.5811 29.3467L18.1991 31.0357L15.5622 34.2589C15.1404 34.7749 15.193 35.5297 15.6828 35.9821L18.8914 38.9441C19.1335 39.1676 19.4398 39.2779 19.7452 39.2779C20.0845 39.2779 20.4227 39.1416 20.6708 38.8728C21.1427 38.3616 21.1107 37.5651 20.5997 37.093L18.2628 34.9359L20.3857 32.3418H23.4227V40.9808C23.4227 41.6762 23.9867 42.2401 24.682 42.2401C25.3775 42.2401 25.9414 41.6762 25.9414 40.9808V30.4905C25.9414 30.405 25.9323 30.3213 25.916 30.2406V24.7362L26.3733 24.0422Z" fill="#FF9900"/>
<path d="M19.7326 17.8209C19.9253 18.6274 20.4516 19.3038 21.1605 19.6927C21.4184 19.8341 21.7003 19.9368 21.9983 19.9945C22.1787 20.0296 22.3644 20.0493 22.5548 20.0493C23.6956 20.0493 24.6799 19.3898 25.155 18.4329C25.2658 18.2096 25.3512 17.9715 25.4017 17.7201C25.4391 17.5341 25.4593 17.3417 25.4593 17.1446C25.4593 16.9175 25.4306 16.6978 25.3813 16.4859C25.2282 15.8266 24.8516 15.2546 24.3342 14.8525C24.2414 14.7804 24.144 14.7143 24.0429 14.6538C23.867 14.5485 23.6796 14.4606 23.4821 14.3941C23.2352 14.3108 22.9734 14.2613 22.7019 14.2475C22.6529 14.245 22.6045 14.2401 22.5549 14.2401C22.1329 14.2401 21.7329 14.3322 21.3712 14.494C21.248 14.549 21.1303 14.613 21.0168 14.6839C20.2814 15.1446 19.7662 15.9232 19.668 16.829C19.6662 16.8454 19.666 16.8619 19.6636 16.8783C19.6564 16.9564 19.6525 17.0355 19.6516 17.1152C19.6516 17.1249 19.6501 17.1345 19.6501 17.1445C19.6501 17.2384 19.6555 17.3309 19.6643 17.4225C19.6772 17.5587 19.7015 17.6911 19.7326 17.8209Z" fill="#FF9900"/>
</g>
<defs>
<clipPath id="clip0">
<rect width="44" height="42.2401" fill="white"/>
</clipPath>
</defs>
</svg>
