<svg width="114" height="116" viewBox="0 0 114 116" fill="none" xmlns="http://www.w3.org/2000/svg">
<path d="M39.9707 64.1165V79.3872C39.9707 80.6164 40.9672 81.6131 42.1972 81.6131C43.4272 81.6131 44.4237 80.6164 44.4237 79.3872V65.5121L37.3709 58.0678C35.8304 56.4414 35.2227 54.1698 35.7457 51.9914L37.443 44.9189H35.4593L36.9472 42.662C37.2609 42.8054 37.591 42.9187 37.9375 42.9889C38.2955 41.9323 38.9024 41.0095 39.6836 40.2811C40.7074 39.3273 42.0298 38.7115 43.4779 38.559C43.6946 38.5362 43.9135 38.5216 44.1363 38.5203V31.2348C44.1363 30.0054 43.1396 29.0088 41.9104 29.0088C40.6811 29.0088 39.6844 30.0062 39.6844 31.2348V33.9211C39.4183 33.8732 39.1451 33.8438 38.8648 33.8438C38.5827 33.8438 38.3083 33.873 38.0403 33.9215V27.5827C38.0403 26.3533 37.0437 25.3568 35.8137 25.3568C34.5845 25.3568 33.5878 26.3533 33.5878 27.5827V39.67L32.5096 41.3059L31.4315 39.67V27.5827C31.4315 26.3533 30.4348 25.3568 29.2056 25.3568C27.9764 25.3568 26.9797 26.3533 26.9797 27.5827V33.9215C26.7116 33.8736 26.4372 33.8438 26.1551 33.8438C25.5866 33.8438 25.0441 33.9515 24.5407 34.1398V23.7884C24.5407 22.559 23.544 21.5625 22.3141 21.5625C21.0843 21.5625 20.0882 22.5592 20.0882 23.7884V35.8757L18.7216 37.9493V27.5827C18.7216 26.3533 17.7249 25.3568 16.4957 25.3568C15.2664 25.3568 14.2697 26.3533 14.2697 27.5827V30.3455C13.7663 30.1577 13.2245 30.0496 12.6553 30.0496C10.1043 30.0496 8.03628 32.1174 8.03628 34.6684C8.03628 37.2194 10.1041 39.2875 12.6553 39.2875C13.2238 39.2875 13.7663 39.1798 14.2697 38.9915V40.3373C14.2697 40.608 14.3247 40.8736 14.4196 41.124H12.6553H8.68065L5.22097 35.8753V23.7888C5.22097 22.5594 4.22426 21.5629 2.99505 21.5629C1.76584 21.5629 0.768921 22.5592 0.768921 23.7884V36.5434C0.768921 36.9791 0.896636 37.4046 1.13636 37.7683L7.14001 46.877V56.6086C7.11149 56.7514 7.09578 56.8987 7.09578 57.05V75.5931C7.09578 76.8225 8.09229 77.8191 9.3217 77.8191C10.5511 77.8191 11.5482 76.8225 11.5482 75.5931V60.3221H12.6549H13.7616V75.5927C13.7616 76.8221 14.7583 77.8186 15.9881 77.8186C17.2179 77.8186 18.2146 76.8221 18.2146 75.5927V57.0496C18.2146 56.8985 18.1989 56.7512 18.1704 56.6082V46.9227L20.641 50.6709V60.4024C20.6125 60.5452 20.5968 60.6926 20.5968 60.8439V79.3872C20.5968 80.6164 21.5933 81.6131 22.8233 81.6131C24.0528 81.6131 25.0493 80.6164 25.0493 79.3872V64.1165H26.1559H27.2626V79.3872C27.2626 80.6164 28.2591 81.6131 29.4885 81.6131C30.7179 81.6131 31.7144 80.6164 31.7144 79.3872V60.8439C31.7144 60.6928 31.6985 60.5454 31.6702 60.4024V50.6709L32.5107 49.3954L33.351 50.6709V60.4024C33.3224 60.5452 33.3067 60.6926 33.3067 60.8439V79.3872C33.3067 80.6164 34.3032 81.6131 35.5327 81.6131C36.7621 81.6131 37.7592 80.6164 37.7592 79.3872V64.1165H38.8659H39.9707ZM26.1532 44.9187H22.1792L20.819 42.8546L22.1736 40.7994C22.9767 42.1633 24.4557 43.0815 26.153 43.0815C26.8379 43.0815 27.4849 42.9284 28.0698 42.6616L29.5577 44.9185H26.1532V44.9187Z" fill="#FF9900"/>
<path d="M49.2582 40.8703C49.4869 40.5043 49.7324 40.15 50.0011 39.8148C50.2516 39.5024 50.514 39.2009 50.7961 38.9175C51.2912 38.4199 51.8333 37.9702 52.4144 37.5732C53.0499 37.1394 53.7335 36.7726 54.4539 36.4767V32.9069C54.4539 31.6777 53.4572 30.6809 52.228 30.6809C51.6798 30.6809 51.184 30.8872 50.7963 31.2152V27.586C50.7963 26.3566 49.7996 25.3601 48.5698 25.3601C47.34 25.3601 46.3439 26.3566 46.3439 27.586V38.8764C46.8547 39.049 47.3298 39.2829 47.7692 39.5638C48.3342 39.9244 48.8337 40.3662 49.2582 40.8703Z" fill="#FF9900"/>
<path d="M47.5937 69.0556L45.8538 67.2192V80.5129L47.5937 78.3868V69.0556Z" fill="#FF9900"/>
<path d="M110.495 23.2778C109.266 23.2778 108.269 24.2745 108.269 25.5037V37.591L104.81 42.8397H100.836H99.072C99.1669 42.5886 99.2219 42.3237 99.2219 42.053V40.7072C99.7253 40.8951 100.267 41.0032 100.836 41.0032C103.387 41.0032 105.454 38.9353 105.454 36.3843C105.454 33.8333 103.387 31.7653 100.836 31.7653C100.267 31.7653 99.7244 31.873 99.2219 32.0612V29.2984C99.2219 28.069 98.2254 27.0725 96.9951 27.0725C95.7661 27.0725 94.7694 28.069 94.7694 29.2984V39.6657L93.402 37.592V25.5035C93.402 24.2741 92.4055 23.2776 91.1763 23.2776C89.9469 23.2776 88.9496 24.2743 88.9496 25.5035V35.8549C88.4462 35.667 87.9041 35.5589 87.3352 35.5589C87.0535 35.5589 86.7791 35.5881 86.5106 35.6366V29.298C86.5106 28.0686 85.5141 27.0721 84.2847 27.0721C83.0557 27.0721 82.059 28.0686 82.059 29.298V41.3853L80.9805 43.0212L80.811 42.7645V43.2781V50.8546V51.3682L80.9805 51.1115L81.8208 52.387V62.1186C81.7925 62.2614 81.7767 62.4087 81.7767 62.56V81.1033C81.7767 82.3325 82.7732 83.3292 84.0031 83.3292C85.2325 83.3292 86.2289 82.3325 86.2289 81.1033V65.8326H87.3356H88.4422V81.1033C88.4422 82.3325 89.4387 83.3292 90.6679 83.3292C91.8973 83.3292 92.8947 82.3325 92.8947 81.1033V62.5598C92.8947 62.4087 92.8789 62.2614 92.8502 62.1184V52.3868L95.3208 48.6386V58.3243C95.2925 58.4671 95.2768 58.6145 95.2768 58.7657V77.3088C95.2768 78.5383 96.2733 79.5348 97.5031 79.5348C98.7329 79.5348 99.729 78.5383 99.729 77.3088V62.0382H100.836H101.942V77.3088C101.942 78.5383 102.939 79.5348 104.169 79.5348C105.399 79.5348 106.395 78.5383 106.395 77.3088V58.7657C106.395 58.6147 106.379 58.4673 106.35 58.3243V48.5925L112.354 39.4838C112.594 39.1201 112.721 38.6946 112.721 38.2589V25.5039C112.722 24.2751 111.726 23.2778 110.495 23.2778ZM91.3106 46.6346H87.3368H83.9328L85.4209 44.3777C86.0049 44.6451 86.6528 44.7976 87.3377 44.7976C89.0349 44.7976 90.5146 43.8794 91.317 42.5155L92.6717 44.5707L91.3106 46.6346Z" fill="#FF9900"/>
<path d="M80.1687 54.3958C80.0443 54.6512 79.9095 54.9017 79.7513 55.1414L71.01 68.4041V82.2032C71.0557 82.5181 71.079 82.8358 71.079 83.1499V83.2567C71.1594 83.2656 71.2384 83.2815 71.3212 83.2815C72.5506 83.2815 73.5471 82.2848 73.5471 81.0556V65.7849H74.6537H75.7604V81.0556C75.7604 82.2848 76.7568 83.2815 77.9866 83.2815C79.2164 83.2815 80.2125 82.2848 80.2125 81.0556V62.5123C80.2125 62.3612 80.1968 62.2139 80.1681 62.0709V54.3958H80.1687Z" fill="#FF9900"/>
<path d="M67.1952 29.2608C67.1952 28.0314 66.1987 27.0349 64.9693 27.0349C63.7404 27.0349 62.7431 28.0314 62.7431 29.2608V29.5524C62.3548 29.2236 61.8596 29.018 61.3114 29.018C60.082 29.018 59.0856 30.0153 59.0856 31.2439V35.673C60.3724 35.7191 61.6038 35.9824 62.7431 36.4331C63.0136 36.54 63.2775 36.6603 63.5374 36.7871C64.9493 37.479 66.1977 38.4522 67.195 39.6481V29.2608H67.1952Z" fill="#FF9900"/>
<path d="M19.0712 19.4938C20.3991 17.7511 20.4586 15.2999 19.3607 13.3825C18.1731 11.3089 12.9829 7.35922 15.8494 5.06158C17.4403 3.78608 15.1879 1.56388 13.6134 2.82553C11.7468 4.32174 11.5691 6.61856 12.2186 8.79385C13.0842 11.692 18.7709 14.7078 16.3414 17.8976C15.1044 19.5203 17.8526 21.0923 19.0712 19.4938Z" fill="#FF9900"/>
<path d="M101.511 6.00159C103.539 5.79617 102.857 2.70641 100.85 2.90935C98.4697 3.15031 97.0726 4.9809 96.4353 7.16012C95.5862 10.0633 98.7198 15.6865 94.9469 17.0421C93.027 17.732 94.4786 20.5454 96.37 19.8657C98.4321 19.1247 99.8144 17.0996 99.9354 14.8939C100.065 12.5083 97.856 6.37172 101.511 6.00159Z" fill="#FF9900"/>
<path d="M39.5354 19.1451C39.875 21.3281 41.4521 23.2062 43.5775 23.7381C45.5276 24.2263 46.6925 21.2826 44.7138 20.7868C40.8243 19.8124 43.3834 13.9059 42.2504 11.1013C41.3998 8.99611 39.8272 7.31328 37.4344 7.31018C35.4174 7.3077 35.045 10.45 37.0842 10.4524C40.7565 10.4582 39.1686 16.7847 39.5354 19.1451Z" fill="#FF9900"/>
<path d="M78.2501 7.80563C79.1797 5.73387 79.3051 3.43396 77.65 1.70567C76.2551 0.248099 73.73 2.15598 75.1402 3.62884C77.6806 6.28234 72.017 9.51759 70.5675 11.4172C69.2276 13.1738 68.9651 15.6118 70.0534 17.5139C71.0515 19.2585 73.9819 18.0609 72.9695 16.2896C70.9788 12.8095 77.0123 10.566 78.2501 7.80563Z" fill="#FF9900"/>
<path d="M49.7034 11.1357C50.5501 13.1765 52.5276 14.6273 54.7181 14.6403C56.7284 14.6529 57.1628 11.517 55.1227 11.5038C51.113 11.4784 52.2006 5.13375 50.435 2.67781C49.1095 0.833789 47.1833 -0.428485 44.8582 0.135695C42.8973 0.611217 43.2798 3.75223 45.2616 3.27154C48.8328 2.40647 48.7877 8.92884 49.7034 11.1357Z" fill="#FF9900"/>
<path d="M27.2494 19.7819C30.104 19.7819 30.104 15.3552 27.2494 15.3552C24.3949 15.3552 24.3949 19.7819 27.2494 19.7819Z" fill="#FF9900"/>
<path d="M6.17714 13.4519C9.0316 13.4519 9.0316 9.02527 6.17714 9.02527C3.32246 9.02527 3.32246 13.4519 6.17714 13.4519Z" fill="#FF9900"/>
<path d="M65.6369 3.349C62.7823 3.349 62.7823 7.77564 65.6369 7.77564C68.4915 7.77564 68.4915 3.349 65.6369 3.349Z" fill="#FF9900"/>
<path d="M61.3893 19.1282C64.244 19.1282 64.244 14.7015 61.3893 14.7015C58.535 14.7015 58.535 19.1282 61.3893 19.1282Z" fill="#FF9900"/>
<path d="M85.8917 12.5126C88.7458 12.5126 88.7458 8.08594 85.8917 8.08594C83.0377 8.08594 83.0374 12.5126 85.8917 12.5126Z" fill="#FF9900"/>
<path d="M111.212 12.8638C108.357 12.8638 108.357 17.2904 111.212 17.2904C114.066 17.2904 114.066 12.8638 111.212 12.8638Z" fill="#FF9900"/>
<path d="M68.9272 65.5696L76.9439 53.4071C77.314 52.8462 77.5105 52.189 77.5105 51.5176V46.5933V46.0165V43.6236V36.6512V27.2837C77.5105 27.1996 77.5041 27.1168 77.4979 27.0341C77.3696 25.2546 75.8882 23.8495 74.0752 23.8495C72.178 23.8495 70.6411 25.3874 70.6411 27.2839V30.8366V37.5797V42.6943V46.5929V50.4872L68.9712 53.0198L65.3038 58.5853H57.0243H56.2667H51.6155L45.8755 52.5259L47.0138 47.7837L47.4604 45.9237C47.4616 45.9173 47.4622 45.9105 47.4641 45.9041C47.485 45.8136 47.5015 45.7233 47.5147 45.6334C47.5191 45.5885 47.5267 45.5449 47.5319 45.4999C47.5761 45.106 47.5503 44.7171 47.4635 44.3459C47.3814 43.9936 47.2467 43.6573 47.0619 43.3506C46.6033 42.5899 45.8534 42.0057 44.9219 41.7817C44.8998 41.7767 44.8783 41.7747 44.8562 41.7697C44.6076 41.7147 44.3598 41.685 44.1151 41.685C44.1019 41.685 44.0893 41.6883 44.0761 41.6883C42.5412 41.7058 41.1551 42.7588 40.7806 44.3188L40.6358 44.9227L40.4119 45.856L38.7615 52.7332C38.4902 53.8632 38.8089 55.0539 39.6076 55.8975L44.3637 60.9187L45.9953 62.6412L50.8519 67.7686V67.773V79.4882L50.403 80.0365L46.6339 84.6427L39.4425 93.4334C38.2922 94.8405 38.4356 96.8993 39.7713 98.133L48.5222 106.211C49.1825 106.821 50.0178 107.122 50.8507 107.122C51.7759 107.122 52.6984 106.75 53.375 106.017C54.6619 104.623 54.5747 102.45 53.181 101.163L46.8077 95.2797L52.5974 88.2049H60.8802V111.766C60.8802 113.662 62.4184 115.2 64.3147 115.2C66.2115 115.2 67.7492 113.662 67.7492 111.766V83.156C67.7492 82.9227 67.7247 82.6946 67.6802 82.4743V67.4624L68.9272 65.5696Z" fill="#FF9900"/>
<path d="M50.8162 48.6026C51.3417 50.802 52.7772 52.6467 54.7105 53.7072C55.4138 54.0929 56.1827 54.3731 56.9953 54.5306C57.4874 54.6261 57.9939 54.6798 58.5131 54.6798C61.6243 54.6798 64.3089 52.8812 65.6044 50.2715C65.9068 49.6625 66.1397 49.0132 66.2773 48.3275C66.3794 47.8204 66.4344 47.2954 66.4344 46.7579C66.4344 46.1388 66.3561 45.5395 66.2217 44.9614C65.8043 43.1635 64.7772 41.6034 63.3661 40.5069C63.1129 40.3102 62.8474 40.1299 62.5717 39.9648C62.0918 39.6778 61.5807 39.438 61.042 39.2566C60.3687 39.0295 59.6547 38.8943 58.9142 38.8569C58.7807 38.8499 58.6486 38.8367 58.5133 38.8367C57.3626 38.8367 56.2716 39.0878 55.285 39.5292C54.9492 39.679 54.628 39.8536 54.3187 40.0471C52.3128 41.3036 50.9077 43.427 50.6401 45.8972C50.6351 45.942 50.6345 45.9869 50.6281 46.0317C50.6085 46.2448 50.5977 46.4605 50.5952 46.6779C50.5952 46.7044 50.5913 46.7304 50.5913 46.7577C50.5913 47.0138 50.606 47.2661 50.63 47.5159C50.6651 47.8873 50.7314 48.2485 50.8162 48.6026Z" fill="#FF9900"/>
</svg>
