<svg width="120" height="120" viewBox="0 0 120 120" fill="none" xmlns="http://www.w3.org/2000/svg">
<g clip-path="url(#clip0)">
<path d="M49.0857 13.2914C50.4216 13.7321 51.6859 14.2959 52.8438 14.9675C53.1492 15.1446 53.4826 15.2288 53.8117 15.2288C54.4781 15.2288 55.1268 14.8835 55.4855 14.2655C56.021 13.3422 55.7066 12.1595 54.7833 11.6238C53.3948 10.8184 51.8851 10.1445 50.2961 9.62037C49.2828 9.28638 48.1897 9.83658 47.8552 10.8504C47.5212 11.8642 48.0721 12.9571 49.0857 13.2914Z" fill="#FF9900"/>
<path d="M62.1908 33.9822C62.1908 36.8654 61.856 39.8125 61.1958 42.7411C60.961 43.7825 61.6148 44.8169 62.6562 45.0517C62.7992 45.0839 62.9422 45.0994 63.0829 45.0994C63.9666 45.0994 64.7642 44.4894 64.9668 43.5913C65.6899 40.3841 66.0566 37.1512 66.0566 33.9822C66.0566 27.2329 64.4094 21.6108 61.1607 17.2728C60.5211 16.4185 59.3094 16.2443 58.4551 16.8842C57.6008 17.5241 57.4266 18.7355 58.0664 19.5898C60.803 23.2444 62.1908 28.0867 62.1908 33.9822Z" fill="#FF9900"/>
<path d="M34.2792 63.4951C29.4758 60.2188 25.1809 53.936 22.7899 46.689C22.4554 45.6752 21.362 45.1247 20.3487 45.4592C19.3348 45.7937 18.7844 46.8866 19.1189 47.9005C21.8065 56.0463 26.5385 62.8943 32.1011 66.6888C32.4343 66.9161 32.8134 67.0251 33.1883 67.0251C33.8058 67.0251 34.4127 66.7298 34.7869 66.1814C35.3881 65.299 35.1611 64.0965 34.2792 63.4951Z" fill="#FF9900"/>
<path d="M101.771 31.5654C95.8863 25.8342 87.6415 22.6781 78.5551 22.6781C76.6383 22.6781 74.7433 22.8204 72.901 23.0972C71.3669 17.5279 68.5916 12.7155 64.6611 8.88725C58.7767 3.15612 50.5319 0 41.4454 0C32.359 0 24.1142 3.15612 18.2297 8.88725C11.9218 15.0307 8.58765 23.7084 8.58765 33.9821C8.58765 44.4453 12.0167 55.3362 17.9957 63.8624C23.0926 71.1312 29.3814 75.8083 36.0972 77.4375C35.646 78.2846 35.3891 79.2503 35.3891 80.2751V84.3984C35.3891 85.4659 36.2544 86.3312 37.3219 86.3312H39.3977C39.2402 87.52 38.9379 88.3261 38.6047 89.2147C38.0638 90.6563 37.4507 92.2907 37.4507 95.3888C37.4507 98.4888 38.0635 100.124 38.6045 101.566C39.0918 102.866 39.5124 103.988 39.5124 106.387C39.5124 108.786 39.0918 109.908 38.6045 111.208C38.0635 112.65 37.4507 114.285 37.4507 117.385C37.4507 118.452 38.3161 119.318 39.3835 119.318C40.4509 119.318 41.3163 118.452 41.3163 117.385C41.3163 114.986 41.7369 113.864 42.2239 112.565C42.7649 111.122 43.3779 109.487 43.3779 106.387C43.3779 103.287 42.7649 101.652 42.2239 100.21C41.7369 98.9104 41.3163 97.7883 41.3163 95.3894C41.3163 92.9924 41.7369 91.8711 42.2239 90.5731C42.6394 89.4657 43.0963 88.2421 43.2865 86.3318H45.5685C46.6359 86.3318 47.5012 85.4664 47.5012 84.399V80.2757C47.5012 79.2508 47.2443 78.2851 46.7931 77.4381C47.7677 77.2017 48.7333 76.9013 49.6879 76.5376C54.7662 89.0256 63.5715 97.7177 73.2141 100.102C72.7582 100.952 72.4987 101.923 72.4987 102.954V107.077C72.4987 108.145 73.3641 109.01 74.4315 109.01H76.5073C76.3499 110.199 76.0476 111.005 75.7144 111.894C75.1735 113.335 74.5604 114.97 74.5604 118.068C74.5604 119.135 75.4258 120.001 76.4932 120.001C77.5606 120.001 78.426 119.135 78.426 118.068C78.426 115.671 78.8465 114.55 79.3336 113.251C79.749 112.144 80.2059 110.921 80.3961 109.01H82.6781C83.7455 109.01 84.6109 108.145 84.6109 107.077V102.954C84.6109 101.929 84.354 100.964 83.9027 100.116C90.6185 98.4872 96.9073 93.8099 102.004 86.5413C107.983 78.0151 111.412 67.1242 111.412 56.661C111.413 46.3866 108.078 37.7088 101.771 31.5654ZM21.1609 61.643C15.6271 53.7515 12.4535 43.6696 12.4535 33.9821C12.4535 24.7753 15.3836 17.0552 20.9269 11.6566C26.0854 6.63232 33.3723 3.86559 41.4454 3.86559C49.5186 3.86559 56.8057 6.63232 61.964 11.6563C67.5072 17.0552 70.4373 24.7753 70.4373 33.9819C70.4373 43.6696 67.2637 53.7515 61.73 61.6427C56.0429 69.753 48.8393 74.2193 41.4454 74.2193C34.0516 74.2193 26.8477 69.753 21.1609 61.643ZM43.6359 80.2754V82.4659H39.2549V80.2754C39.2549 79.0675 40.2375 78.0849 41.4454 78.0849C42.6533 78.0849 43.6359 79.0675 43.6359 80.2754ZM80.7456 102.954V105.144H76.3646V102.954C76.3646 101.746 77.3472 100.763 78.5551 100.763C79.7629 100.763 80.7456 101.746 80.7456 102.954ZM98.8396 84.3211C93.1526 92.4311 85.9489 96.8974 78.5551 96.8974C73.3437 96.8974 68.1285 94.6263 63.4733 90.3298C59.2897 86.4686 55.6674 81.0176 53.195 74.8917C54.4536 74.185 55.686 73.365 56.8856 72.4344C59.6503 79.7592 64.0754 85.8645 69.2101 89.3668C69.5434 89.5941 69.9224 89.7031 70.2974 89.7031C70.9149 89.7031 71.5218 89.4077 71.896 88.8593C72.4974 87.9775 72.2701 86.775 71.3883 86.1735C66.656 82.9458 62.4186 76.7992 60.0077 69.6878C61.73 67.9859 63.3667 66.042 64.8951 63.8624C70.8739 55.3362 74.3029 44.4453 74.3029 33.9821C74.3029 31.5182 74.1091 29.1476 73.7306 26.88C75.3023 26.6566 76.9189 26.5437 78.5551 26.5437C86.6282 26.5437 93.9154 29.3104 99.0736 34.3344C104.617 39.7334 107.547 47.4535 107.547 56.66C107.547 66.3479 104.373 76.4299 98.8396 84.3211Z" fill="#FF9900"/>
<path d="M98.2701 39.9504C97.6305 39.0961 96.4187 38.9219 95.5644 39.5618C94.7101 40.2017 94.5359 41.4132 95.1758 42.2675C97.9127 45.922 99.3004 50.7643 99.3004 56.6599C99.3004 59.5431 98.9656 62.4902 98.3054 65.4188C98.0706 66.4602 98.7244 67.4946 99.7658 67.7294C99.9088 67.7616 100.052 67.7771 100.193 67.7771C101.076 67.7771 101.874 67.1671 102.076 66.269C102.8 63.0618 103.166 59.8289 103.166 56.6599C103.166 49.9105 101.519 44.2887 98.2701 39.9504Z" fill="#FF9900"/>
<path d="M91.8941 34.302C90.5056 33.4967 88.9959 32.8228 87.4069 32.2986C86.3933 31.9646 85.3004 32.5148 84.9659 33.5286C84.6317 34.5424 85.1824 35.6351 86.1959 35.9696C87.5319 36.4103 88.7962 36.9741 89.9541 37.6457C90.2595 37.8228 90.5929 37.907 90.922 37.907C91.5885 37.907 92.2371 37.5617 92.5958 36.9437C93.1319 36.0204 92.8175 34.8378 91.8941 34.302Z" fill="#FF9900"/>
</g>
<defs>
<clipPath id="clip0">
<rect width="120" height="120" fill="white"/>
</clipPath>
</defs>
</svg>
