<svg width="120" height="108" viewBox="0 0 120 108" fill="none" xmlns="http://www.w3.org/2000/svg">
<path d="M26.0928 23.9308C31.2621 21.6958 36.8319 20.5434 42.4608 20.5446C48.0772 20.5422 53.6343 21.6946 58.7894 23.9308C61.7111 22.6636 64.7706 21.7426 67.9052 21.1867L58.5299 13.3498C57.8899 12.8147 57.6665 11.9271 57.9762 11.1514L61.8209 1.50952C62.1127 0.776738 62.8201 0.296329 63.6068 0.29657H88.5976C89.3841 0.296329 90.0917 0.776738 90.3834 1.50952L94.2282 11.1514C94.5379 11.9271 94.3144 12.8147 93.6745 13.3498L83.9166 21.5069C106.219 26.3531 120.383 48.4184 115.552 70.791C110.72 93.1637 88.724 107.371 66.4212 102.525C63.812 101.958 61.2639 101.139 58.8122 100.079C37.8503 109.142 13.5326 99.4437 4.49722 78.4159C-4.5379 57.3883 5.13064 32.9945 26.0928 23.9308ZM63.9528 6.55032L62.6072 9.93849H65.979L63.9528 6.55032ZM67.0017 4.15334L69.3739 8.12002L71.7461 4.15334H67.0017ZM75.3659 5.59577L72.7688 9.93849H78.83L75.3659 5.59577ZM79.1415 4.15334L82.6017 8.49605L85.2027 4.15334H79.1415ZM88.2515 6.55032L86.2254 9.93849H89.603L88.2515 6.55032ZM87.1327 13.7953H65.0717L71.9922 19.5804H80.2122L87.1327 13.7953ZM75.141 99.6083C95.8439 99.5881 112.611 82.7362 112.591 61.9684C112.571 41.2007 95.7714 24.3814 75.0682 24.4014C71.0896 24.4052 67.137 25.0445 63.3586 26.295C64.8129 27.1558 66.2135 28.1043 67.5532 29.1355C85.6871 24.8948 103.815 36.2033 108.042 54.3937C112.27 72.5842 100.996 90.7684 82.8627 95.0091C64.729 99.2499 46.6016 87.9413 42.3741 69.7509C39.3305 56.6548 44.3104 42.9943 55.0581 34.9573C53.7088 34.3169 52.3129 33.7798 50.8827 33.351C35.1005 46.7824 33.1611 70.5047 46.5504 86.336C53.674 94.7589 64.1297 99.6126 75.141 99.6083ZM71.3136 32.3733C87.6378 48.3111 87.9913 74.5063 72.1032 90.8816C71.8591 91.1333 71.612 91.3816 71.3616 91.6267C87.6768 93.7352 102.607 82.1769 104.708 65.8107C106.81 49.4445 95.2881 34.468 78.9732 32.3596C77.7026 32.1954 76.4225 32.1134 75.1413 32.1147C73.861 32.1197 72.5826 32.206 71.3136 32.3733ZM58.8009 86.9697C72.5456 77.9482 76.3973 59.4577 67.404 45.67C65.1598 42.2293 62.2306 39.2911 58.8009 37.04C45.0562 46.0634 41.206 64.5554 50.2012 78.3431C52.4448 81.7821 55.3726 84.719 58.8009 86.9697ZM46.244 32.3829H46.2402C29.9239 30.2928 15.0077 41.8667 12.9241 58.2341C10.8405 74.6015 22.3783 89.5643 38.6946 91.6544C41.2216 91.9782 43.7795 91.9753 46.3058 91.646C29.9753 75.7147 29.6115 49.5198 45.4931 33.1381C45.7399 32.8831 45.9903 32.6315 46.244 32.3829ZM13.9024 86.3659C21.0238 94.7693 31.4654 99.6112 42.4606 99.6086C46.4639 99.616 50.4422 98.9765 54.2427 97.7149C52.7861 96.8529 51.3835 95.9022 50.0424 94.8686C31.9008 99.113 13.764 87.8011 9.53285 69.6027C5.30173 51.4043 16.5783 33.2107 34.7199 28.9663C52.8615 24.722 70.9983 36.0338 75.2294 54.232C78.2761 67.3361 73.2929 81.0054 62.538 89.0465C63.8894 89.6899 65.2879 90.2289 66.7211 90.6587C82.4883 77.213 84.4042 53.4913 71.0005 37.6749C57.5968 21.8583 33.9491 19.9364 18.1818 33.3821C2.41482 46.8275 0.498703 70.5493 13.9024 86.3659Z" fill="#FF9900"/>
</svg>
