<svg width="114" height="120" viewBox="0 0 114 120" fill="none" xmlns="http://www.w3.org/2000/svg">
<g clip-path="url(#clip0)">
<path d="M109.905 69.5671C107.561 67.7819 104.254 66.838 100.339 66.838C97.1589 66.838 94.3318 67.4276 92.0247 68.4813C91.4195 67.7343 90.775 67.0092 90.1011 66.3097C92.3167 62.4956 93.5692 58.1725 93.5692 53.594C93.5692 47.3299 91.2263 41.5438 87.2786 36.8874C88.7617 35.6689 90.287 35.3283 92.4495 36.6595C93.289 37.1768 94.2247 37.9449 95.2913 39.0115C95.3993 39.1195 95.5027 39.2257 95.6044 39.331C99.1749 43.0279 98.7812 44.9477 97.8062 46.4693C97.7934 46.4895 97.7833 46.5105 97.7714 46.5316C97.6313 46.7385 97.4757 46.9436 97.3054 47.1487C96.6874 47.8911 96.7872 48.9934 97.5297 49.6123C97.8566 49.8852 98.2539 50.0179 98.6485 50.0179C99.1493 50.0179 99.6473 49.8037 99.9934 49.3889C100.278 49.0475 100.526 48.7078 100.743 48.37C100.746 48.3654 100.75 48.3617 100.752 48.3572C100.757 48.3507 100.76 48.3452 100.763 48.3388C100.855 48.1951 100.94 48.0523 101.02 47.9095C101.038 47.8774 101.055 47.8463 101.073 47.8142C101.141 47.6897 101.205 47.5652 101.264 47.4407C101.292 47.3839 101.318 47.3263 101.344 47.2695C101.388 47.1725 101.429 47.0763 101.467 46.9802C103.303 42.4566 99.8094 38.6031 98.0589 36.8325C98.0268 36.7996 97.9957 36.7684 97.9646 36.7373C97.9445 36.7172 97.9243 36.697 97.9042 36.6769C97.8556 36.6283 97.809 36.5807 97.765 36.5377C95.9724 34.7442 90.6733 29.4479 84.857 34.3588C79.1496 29.067 71.1177 25.7656 62.2344 25.7656C53.3501 25.7656 45.3182 29.067 39.6108 34.3588C33.7945 29.4479 28.4954 34.7442 26.7028 36.5377C24.8287 38.4109 19.1278 44.1128 25.2471 50.2321C27.0269 52.011 28.923 52.9485 30.9069 53.0382C30.9023 53.2232 30.8987 53.4081 30.8987 53.594C30.8987 58.0828 32.1209 62.4306 34.3658 66.3115C33.6929 67.0101 33.0483 67.7343 32.4441 68.4822C30.136 67.4285 27.3089 66.838 24.1284 66.838C22.539 66.838 21.0513 66.9963 19.6853 67.3012V40.9515C21.0247 40.9451 22.2241 40.2493 22.8942 39.0875C23.5681 37.9202 23.5681 36.5267 22.8942 35.3594L22.8009 35.1974C30.4006 33.0541 35.8691 26.0275 35.8691 17.9333C35.8691 8.04472 27.8243 0 17.9358 0C12.3776 0 7.22411 2.51495 3.79821 6.8994C3.20312 7.66112 3.3377 8.76066 4.0985 9.35484C4.86022 9.94993 5.95977 9.81535 6.55486 9.05363C9.31334 5.52337 13.4616 3.49914 17.9358 3.49914C25.8944 3.49914 32.3699 9.97465 32.3699 17.9333C32.3699 24.7622 27.535 30.6445 20.9579 32.0471C20.2603 31.072 19.1562 30.4998 17.9358 30.4998C16.7154 30.4998 15.6112 31.072 14.9136 32.0471C8.33647 30.6445 3.50158 24.7622 3.50158 17.9333C3.50158 17.1826 3.55926 16.4291 3.6737 15.693C3.82293 14.7381 3.16924 13.8437 2.21435 13.6953C1.25946 13.5489 0.36499 14.2007 0.216674 15.1547C0.074768 16.0684 0.00244141 17.0031 0.00244141 17.9333C0.00244141 26.0284 5.47088 33.0541 13.0707 35.1974L12.9773 35.3594C12.3034 36.5267 12.3034 37.9211 12.9773 39.0884C13.6474 40.2493 14.8468 40.9451 16.1862 40.9515V68.5472C15.6048 68.8494 15.0619 69.1881 14.5639 69.5671C12.0691 71.4678 10.7507 74.2061 10.7507 77.4855C10.7507 80.764 12.0691 83.5023 14.5639 85.403C16.9067 87.1892 20.2145 88.1322 24.1284 88.1322C24.6319 88.1322 25.1263 88.1166 25.6115 88.0873C25.6417 89.3764 25.758 90.6654 25.9576 91.9362C21.423 95.2 18.4649 101.614 18.4649 107.533C18.4649 115.34 23.6596 120 32.3599 120C37.4859 120 41.3924 118.382 43.7398 115.457C49.3346 118.364 55.7021 119.896 62.2344 119.896C68.8344 119.896 75.2586 118.334 80.8946 115.37C83.2576 118.169 87.101 119.714 92.108 119.714C100.809 119.714 106.004 115.054 106.004 107.248C106.004 101.345 103.062 94.951 98.5487 91.678C98.7245 90.4915 98.8288 89.2894 98.8572 88.0873C99.3425 88.1166 99.8359 88.1331 100.339 88.1331C104.254 88.1331 107.561 87.1892 109.905 85.4039C112.399 83.5023 113.718 80.7649 113.718 77.4855C113.718 74.2061 112.399 71.4678 109.905 69.5671ZM16.0077 37.3388C15.9408 37.2234 15.9893 37.1401 16.0077 37.109L17.7371 34.1125C17.7554 34.0814 17.803 33.998 17.9358 33.998C18.0685 33.998 18.1161 34.0814 18.1344 34.1125L19.8639 37.109C19.8822 37.1401 19.9307 37.2234 19.8639 37.3388C19.7979 37.4532 19.7018 37.4532 19.6652 37.4532H16.2063C16.1697 37.4532 16.0736 37.4532 16.0077 37.3388ZM27.7218 47.7575C25.4129 45.4485 24.9111 43.2778 29.1766 39.0115C32.9907 35.1983 35.1302 35.1965 37.1902 36.8874C34.1094 40.5212 32.0065 44.8443 31.2319 49.5455C30.3091 49.54 29.1308 49.1665 27.7218 47.7575ZM14.2499 77.4855C14.2499 75.5693 14.9273 73.9864 16.1862 72.7989V78.7389C16.1862 79.7057 16.9699 80.4884 17.9358 80.4884C18.9016 80.4884 19.6853 79.7057 19.6853 78.7389V70.9065C20.9689 70.533 22.4566 70.3362 24.1284 70.3362C29.5419 70.3362 35.3683 72.5737 35.3683 77.4846C35.3683 82.3964 29.5419 84.633 24.1284 84.633C17.9422 84.633 14.2499 81.9615 14.2499 77.4855ZM32.3599 116.501C27.6174 116.501 21.9632 114.945 21.9632 107.533C21.9632 104.138 23.1689 100.444 25.1895 97.649C27.2366 94.8173 29.7836 93.2573 32.3599 93.2573C34.9371 93.2573 37.4841 94.8173 39.5312 97.649C41.5508 100.444 42.7566 104.138 42.7566 107.533C42.7566 114.945 37.1032 116.501 32.3599 116.501ZM102.505 107.247C102.505 114.66 96.8513 116.216 92.108 116.216C87.3655 116.216 81.7113 114.66 81.7113 107.247C81.7113 103.854 82.9179 100.159 84.9376 97.3643C86.9847 94.5326 89.5317 92.9725 92.108 92.9725C94.6852 92.9725 97.2322 94.5326 99.2793 97.3643C101.299 100.159 102.505 103.854 102.505 107.247ZM95.2327 89.9696C94.2347 89.6492 93.1901 89.4734 92.108 89.4734C84.1548 89.4734 78.2121 98.8575 78.2121 107.247C78.2121 109.143 78.5216 110.852 79.1093 112.354C74.0126 115.002 68.2063 116.397 62.2344 116.397C56.2999 116.397 50.523 115.018 45.4473 112.402C45.9774 110.957 46.2557 109.329 46.2557 107.533C46.2557 99.1423 40.313 89.759 32.3599 89.759C31.2869 89.759 30.2505 89.9312 29.2599 90.247C29.1628 89.3681 29.1107 88.4828 29.1033 87.5984C35.0341 86.2544 38.8674 82.4687 38.8674 77.4846C38.8674 74.6391 37.615 72.1855 35.4397 70.3517C35.7382 69.9938 36.0467 69.6404 36.3635 69.2943C38.5049 72.0784 41.224 74.532 44.4356 76.5022C45.2587 77.0085 46.3363 76.7503 46.8416 75.9264C47.347 75.1033 47.0888 74.0257 46.2658 73.5204C38.8345 68.9611 34.3978 61.5114 34.3978 53.594C34.3978 40.1788 46.8847 29.2648 62.2344 29.2648C77.5832 29.2648 90.07 40.1788 90.07 53.594C90.07 67.0082 77.5832 77.9222 62.2344 77.9222C59.1545 77.9222 56.1287 77.4855 53.2412 76.624C52.3156 76.3475 51.3414 76.8749 51.065 77.8005C50.7885 78.7261 51.3149 79.7011 52.2414 79.9767C55.4531 80.9352 58.8149 81.4214 62.2344 81.4214C72.9625 81.4214 82.4464 76.6084 88.0971 69.2861C88.4166 69.6358 88.7269 69.991 89.0281 70.3517C86.8529 72.1855 85.6004 74.6401 85.6004 77.4846C85.6004 82.4678 89.4328 86.2535 95.3617 87.5984C95.3563 88.3903 95.3123 89.1823 95.2327 89.9696ZM100.339 84.633C94.926 84.633 89.0996 82.3964 89.0996 77.4846C89.0996 72.5737 94.926 70.3362 100.339 70.3362C106.526 70.3362 110.219 73.0086 110.219 77.4846C110.219 81.9615 106.526 84.633 100.339 84.633Z" fill="#FF9900"/>
<path d="M78.1085 62.3932C78.1085 58.168 76.4011 54.8291 73.172 52.739C70.4913 51.0031 66.8109 50.1233 62.2324 50.1233C57.6538 50.1233 53.9734 51.0031 51.2927 52.739C48.0627 54.8291 46.3562 58.168 46.3562 62.3932C46.3562 70.6183 52.7365 76.1444 62.2324 76.1444C71.7291 76.1444 78.1085 70.6183 78.1085 62.3932ZM62.2324 65.6387C60.1587 65.6387 58.1335 62.4161 58.1335 60.5447C58.1335 60.0439 58.1335 59.2044 62.2324 59.2044C66.3312 59.2044 66.3312 60.0439 66.3312 60.5447C66.3312 62.4161 64.3051 65.6387 62.2324 65.6387ZM49.8544 62.3932C49.8544 56.5732 54.0192 53.6215 62.2324 53.6215C70.4456 53.6215 74.6094 56.5732 74.6094 62.3932C74.6094 69.1974 69.2197 72.0529 63.9819 72.5601V68.8596C67.4582 67.7499 69.8303 63.5275 69.8303 60.5447C69.8303 58.6249 68.8406 57.1527 67.0435 56.3992C65.8981 55.9195 64.4141 55.7053 62.2324 55.7053C60.0497 55.7053 58.5657 55.9195 57.4204 56.3992C55.6232 57.1527 54.6335 58.6249 54.6335 60.5447C54.6335 63.5275 57.0056 67.7499 60.4819 68.8596V72.5601C55.2451 72.0529 49.8544 69.1974 49.8544 62.3932Z" fill="#FF9900"/>
<path d="M74.8441 46.3715C74.8441 48.2822 73.295 49.8312 71.3843 49.8312C69.4736 49.8312 67.9236 48.2822 67.9236 46.3715C67.9236 44.4598 69.4736 42.9108 71.3843 42.9108C73.295 42.9108 74.8441 44.4598 74.8441 46.3715Z" fill="#FF9900"/>
<path d="M56.8158 46.3715C56.8158 48.2822 55.2667 49.8312 53.356 49.8312C51.4453 49.8312 49.8962 48.2822 49.8962 46.3715C49.8962 44.4598 51.4453 42.9108 53.356 42.9108C55.2667 42.9108 56.8158 44.4598 56.8158 46.3715Z" fill="#FF9900"/>
</g>
<defs>
<clipPath id="clip0">
<rect width="113.906" height="120" fill="white"/>
</clipPath>
</defs>
</svg>
