<svg width="120" height="120" viewBox="0 0 120 120" fill="none" xmlns="http://www.w3.org/2000/svg">
<g clip-path="url(#clip0)">
<path d="M119.017 84.5753V66.8626C119.011 61.4303 114.609 57.028 109.177 57.0223H101.304V43.5017C101.304 42.4149 100.423 41.5337 99.3363 41.5337H87.5279C86.4411 41.5337 85.5599 42.4149 85.5599 43.5017V57.0223H67.8472V33.4054C67.8472 32.3186 66.966 31.4374 65.8792 31.4374H54.0707C52.9839 31.4374 52.1027 32.3186 52.1027 33.4054V57.0223H34.39V43.2553C34.39 42.1685 33.5088 41.2873 32.422 41.2873H20.6135C19.5267 41.2873 18.6455 42.1685 18.6455 43.2553V57.0223H10.7732C5.34179 57.028 0.939577 61.4303 0.93285 66.8626V84.5753C0.865582 88.7987 3.13732 92.7147 6.83706 94.7539V116.064H2.90092C1.81406 116.064 0.93285 116.946 0.93285 118.032C0.93285 119.119 1.81406 120.001 2.90092 120.001H117.049C118.136 120.001 119.017 119.119 119.017 118.032C119.017 116.946 118.136 116.064 117.049 116.064H113.113V94.7837C116.756 92.6714 119.004 88.7853 119.017 84.5753ZM89.496 45.4698H97.3683V57.0223H89.496V45.4698ZM56.0388 35.3735H63.9111V57.0223H56.0388V35.3735ZM22.5816 45.2234H30.4539V57.0223H22.5816V45.2234ZM4.86899 66.8626C4.86899 63.6011 7.51262 60.9584 10.7732 60.9584H109.177C112.438 60.9584 115.081 63.6011 115.081 66.8626V84.5753C115.074 87.7013 113.229 90.5304 110.371 91.7979C107.396 93.051 103.96 92.4062 101.642 90.1585C100.164 88.6757 99.3354 86.6673 99.3363 84.5753V76.703C99.3267 73.7307 97.6402 71.0198 94.9793 69.6965L94.8592 69.6312C94.544 69.4822 94.2192 69.3554 93.8867 69.2516C93.6906 69.1863 93.5109 69.1219 93.3158 69.0748C93.0641 69.0171 92.8094 68.972 92.5528 68.9402C92.3799 68.9153 92.2146 68.8634 92.0387 68.8499C91.9445 68.8499 91.8542 68.8634 91.762 68.8595C91.6687 68.8557 91.5669 68.8307 91.4641 68.8307C91.2459 68.8307 91.0355 68.8759 90.8192 68.8932C90.6021 68.9114 90.3724 68.921 90.1514 68.9585C89.8112 69.0219 89.4748 69.1084 89.1462 69.216C88.9684 69.2708 88.7878 69.3102 88.6148 69.3775C88.2477 69.5264 87.8931 69.7042 87.5539 69.9089C87.4299 69.98 87.2982 70.031 87.1762 70.1059C86.7169 70.4038 86.2892 70.7488 85.901 71.1351C84.4182 72.6073 83.587 74.6129 83.5918 76.703V80.6391C83.5918 84.9865 80.0679 88.5114 75.7195 88.5114C71.3721 88.5114 67.8472 84.9865 67.8472 80.6391V76.703C67.8376 73.7307 66.1511 71.0198 63.4902 69.6965L63.3701 69.6312C63.0549 69.4822 62.73 69.3554 62.3975 69.2516C62.2015 69.1863 62.0218 69.1219 61.8267 69.0748C61.575 69.0171 61.3203 68.972 61.0637 68.9402C60.8907 68.9153 60.7255 68.8634 60.5496 68.8499C60.4554 68.8499 60.3651 68.8634 60.2728 68.8595C60.1796 68.8557 60.0778 68.8307 59.9749 68.8307C59.7568 68.8307 59.5463 68.8759 59.3301 68.8932C59.1129 68.9114 58.8833 68.921 58.6623 68.9585C58.323 69.0219 57.9877 69.1084 57.659 69.216C57.4793 69.2708 57.2986 69.3102 57.1257 69.3775C56.7605 69.5264 56.4069 69.7033 56.0686 69.907C55.9427 69.9781 55.8091 70.031 55.6871 70.104C55.2277 70.4009 54.8001 70.745 54.4119 71.1313C52.9281 72.6044 52.0969 74.6119 52.1027 76.703V88.5114C52.1027 92.8588 48.5788 96.3837 44.2304 96.3837C39.8829 96.3837 36.3581 92.8588 36.3581 88.5114V76.703C36.3485 73.7307 34.662 71.0198 32.0011 69.6965L31.8809 69.6312C31.5657 69.4822 31.2409 69.3554 30.9084 69.2516C30.7124 69.1863 30.5327 69.1219 30.3376 69.0748C30.0858 69.0171 29.8312 68.972 29.5746 68.9402C29.4016 68.9153 29.2363 68.8634 29.0605 68.8499C28.8856 68.8365 28.6828 68.8307 28.4858 68.8307C24.1384 68.8307 20.6135 72.3546 20.6135 76.703V84.5753C20.6164 86.6606 19.7938 88.6623 18.3245 90.1422C16.3737 92.0199 13.6167 92.8021 10.9702 92.2284C10.4993 92.1285 10.0381 91.9863 9.59313 91.8018C8.69366 91.4049 7.87395 90.8485 7.17436 90.1585C5.69639 88.6757 4.86803 86.6673 4.86899 84.5753V66.8626ZM10.7732 116.064V96.2203C10.9702 96.253 11.1672 96.2616 11.3642 96.2847L11.5151 96.301C13.2371 96.4788 14.9774 96.277 16.613 95.71C17.1127 95.5342 17.6009 95.3247 18.0727 95.0844C18.1736 95.0354 18.2697 94.9816 18.3745 94.9268C18.756 94.7193 19.1269 94.4915 19.4844 94.2436C19.5988 94.1657 19.7141 94.0927 19.8265 94.0101C22.8392 91.8181 24.5997 88.3 24.5497 84.5753V76.703C24.5478 75.6584 24.9639 74.6571 25.7048 73.9219C25.9018 73.7268 26.118 73.552 26.3505 73.402C26.3919 73.3771 26.437 73.3588 26.4784 73.3357C26.6715 73.2175 26.8733 73.1166 27.0828 73.034C27.1443 73.0109 27.2068 72.9965 27.2683 72.9773C27.4605 72.9119 27.6575 72.8629 27.8583 72.8293C27.9525 72.8139 28.0553 72.8101 28.1476 72.7995C28.3129 72.7841 28.4791 72.7784 28.6453 72.7822C28.7693 72.788 28.8933 72.8005 29.0153 72.8197C29.1633 72.837 29.3103 72.8639 29.4545 72.9004C29.5035 72.9119 29.5487 72.9302 29.5957 72.9437C31.3111 73.5692 32.4441 75.2096 32.422 77.0355V88.5114C32.422 95.0325 37.7092 100.32 44.2304 100.32C50.7525 100.32 56.0388 95.0325 56.0388 88.5114V76.703C56.0388 75.3663 56.7192 74.1218 57.8435 73.4001C57.8771 73.379 57.9165 73.3646 57.9502 73.3434C58.1501 73.2214 58.3596 73.1166 58.5777 73.0321C58.6334 73.0109 58.6901 72.9984 58.7449 72.9811C58.9381 72.9158 59.1351 72.8639 59.3359 72.8274C59.4301 72.8139 59.5329 72.8082 59.6194 72.7995C59.7847 72.7832 59.9519 72.7774 60.1191 72.7822C60.243 72.788 60.3661 72.8005 60.4891 72.8197C60.6371 72.837 60.7831 72.8639 60.9282 72.9004C60.9772 72.9119 61.0224 72.9302 61.0695 72.9437C62.7906 73.5644 63.9313 75.2058 63.9111 77.0355V80.6391C63.9111 87.1603 69.1983 92.4475 75.7195 92.4475C82.2416 92.4475 87.5279 87.1603 87.5279 80.6391V76.703C87.526 75.6584 87.9421 74.6571 88.683 73.9219C88.88 73.7268 89.0962 73.552 89.3288 73.402C89.3701 73.3771 89.4153 73.3588 89.4585 73.3329C89.6507 73.2166 89.8525 73.1166 90.061 73.034C90.1226 73.0109 90.1869 72.9965 90.258 72.9773C90.4473 72.9119 90.6415 72.8629 90.8385 72.8293C90.9326 72.8139 91.0355 72.8101 91.1277 72.7995C91.293 72.7841 91.4593 72.7784 91.6255 72.7822C91.7495 72.788 91.8734 72.8005 91.9955 72.8197C92.1435 72.837 92.2905 72.8639 92.4346 72.9004C92.4837 72.9119 92.5288 72.9302 92.5759 72.9437C94.2903 73.5702 95.4233 75.2106 95.4002 77.0355V84.5753C95.3973 87.7119 96.6408 90.7216 98.8587 92.9415C99.2489 93.322 99.665 93.6757 100.104 94.0005C100.232 94.0927 100.364 94.1754 100.498 94.2638C100.829 94.4896 101.163 94.6991 101.511 94.8894C101.649 94.9643 101.787 95.0374 101.926 95.1056C102.323 95.3026 102.73 95.4775 103.145 95.6293C103.227 95.6591 103.308 95.6966 103.393 95.7244C104.473 96.0925 105.599 96.3049 106.739 96.3539H106.752C107.301 96.376 107.851 96.3596 108.397 96.3049L108.594 96.2828C108.791 96.2616 108.988 96.253 109.185 96.2203V116.064H10.7732Z" fill="#FF9900"/>
<path d="M59.9759 27.5011C65.4082 27.4944 69.8105 23.0921 69.8162 17.6607C69.8162 12.9366 62.9693 2.78393 61.5961 0.797606C61.2088 0.295018 60.6111 0 59.9759 0C59.3416 0 58.7429 0.295018 58.3566 0.797606C56.9824 2.78393 50.1355 12.9366 50.1355 17.6607C50.1422 23.0921 54.5444 27.4944 59.9759 27.5011ZM59.9759 5.47369C62.8078 9.89993 65.8801 15.511 65.8801 17.6607C65.8801 20.9213 63.2374 23.5649 59.9759 23.5649C56.7153 23.5649 54.0716 20.9213 54.0716 17.6607C54.0716 15.511 57.1439 9.89993 59.9759 5.47369Z" fill="#FF9900"/>
<path d="M93.4316 37.8438C98.8639 37.8371 103.266 33.4349 103.272 28.0035C103.272 23.2793 96.425 13.1267 95.0518 11.1403C94.6645 10.6377 94.0668 10.3427 93.4316 10.3427C92.7974 10.3427 92.1987 10.6377 91.8124 11.1403C90.4382 13.1267 83.5913 23.2793 83.5913 28.0035C83.598 33.4349 88.0002 37.8371 93.4316 37.8438ZM93.4316 15.8164C96.2636 20.2427 99.3358 25.8538 99.3358 28.0035C99.3358 31.264 96.6931 33.9077 93.4316 33.9077C90.171 33.9077 87.5274 31.264 87.5274 28.0035C87.5274 25.8538 90.5996 20.2427 93.4316 15.8164Z" fill="#FF9900"/>
<path d="M26.5176 37.8438C31.9499 37.8371 36.3521 33.4349 36.3579 28.0035C36.3579 23.2793 29.511 13.1267 28.1378 11.1403C27.7505 10.6377 27.1528 10.3427 26.5176 10.3427C25.8833 10.3427 25.2847 10.6377 24.8983 11.1403C23.5242 13.1267 16.6772 23.2793 16.6772 28.0035C16.684 33.4349 21.0862 37.8371 26.5176 37.8438ZM26.5176 15.8164C29.3496 20.2427 32.4218 25.8538 32.4218 28.0035C32.4218 31.264 29.7791 33.9077 26.5176 33.9077C23.257 33.9077 20.6134 31.264 20.6134 28.0035C20.6134 25.8538 23.6856 20.2427 26.5176 15.8164Z" fill="#FF9900"/>
</g>
<defs>
<clipPath id="clip0">
<rect width="120" height="120" fill="white"/>
</clipPath>
</defs>
</svg>
