<svg width="120" height="120" viewBox="0 0 120 120" fill="none" xmlns="http://www.w3.org/2000/svg">
<path d="M118.243 56.8494C116.922 56.4861 115.801 57.2994 115.35 58.4924C114.575 60.5403 111.664 61.7652 109.557 62.0399C106.384 62.4538 103.293 61.0644 100.49 59.7641C97.1642 58.2219 93.737 56.75 89.9987 56.7814C86.237 56.8131 82.5648 58.3159 79.5013 60.4285C76.0527 62.8065 73.2824 65.9097 70.5718 69.0679C69.745 70.0314 69.6252 71.4479 70.5718 72.3946C71.4184 73.2412 73.0677 73.3628 73.8985 72.3946C78.2509 67.3227 83.9872 60.632 91.468 61.5528C95 61.9876 98.1636 63.9587 101.405 65.2745C104.738 66.6271 108.393 67.2662 111.925 66.3381C115.426 65.4179 118.58 63.1972 119.886 59.7428C120.335 58.5545 119.387 57.1637 118.243 56.8494Z" fill="#FF9900"/>
<path d="M48.4046 32.0055C50.6286 28.9253 52.9991 25.6354 53.6759 21.8085C54.3324 18.0962 53.3722 14.3577 51.3043 11.2321C48.9193 7.62741 45.4576 5.03335 42.0406 2.47866C41.0223 1.71741 39.4124 2.31343 38.8222 3.32241C38.1195 4.52382 38.6455 5.77772 39.6662 6.54085C44.9237 10.4716 51.4981 15.9405 48.3364 23.2598C45.5284 29.7599 38.2224 34.9883 39.1358 42.7846C39.576 46.5412 41.8051 49.9377 45.6029 50.9413C48.5331 51.7155 49.7827 47.1787 46.8538 46.4045C44.4807 45.7776 43.5435 43.1851 43.797 40.9117C44.1657 37.6108 46.5139 34.6241 48.4046 32.0055Z" fill="#FF9900"/>
<path d="M82.1703 37.7183C81.7887 34.5912 80.0188 31.759 77.3738 30.0387C75.9001 29.0804 74.2967 28.576 72.6702 28.4469C73.4745 25.7954 74.9802 23.359 77.1812 21.6727C78.1881 20.9014 78.7234 19.6477 78.0252 18.4543C77.4456 17.4633 75.8216 16.8329 74.8067 17.6103C71.0516 20.4875 68.5435 24.6141 67.6449 29.176C64.5744 30.2928 61.8437 32.5482 60.2701 35.3497C56.0406 42.879 58.7132 51.6809 62.9687 58.5256C64.5641 61.0915 68.6359 58.7321 67.0311 56.1512C64.2554 51.6865 61.9157 46.3341 63.1276 40.9751C63.7159 38.3745 65.2079 35.937 67.3389 34.4935C67.5442 37.0749 68.2693 39.6237 69.531 41.8869C71.2822 45.0279 74.6066 47.6356 78.2797 45.8792C81.245 44.4615 82.5479 40.8144 82.1703 37.7183ZM76.9342 40.9622C75.6538 42.7892 74.3084 40.797 73.5934 39.5119C72.6198 37.7623 72.0931 35.7676 71.9992 33.777C71.9895 33.5708 71.9884 33.3631 71.987 33.1552C72.103 33.1599 72.219 33.1651 72.3362 33.1749C75.7836 33.4644 79.1302 37.8287 76.9342 40.9622Z" fill="#FF9900"/>
<path d="M91.7328 44.1418C88.7056 44.1418 88.7004 48.8467 91.7328 48.8467C94.7599 48.8465 94.7648 44.1418 91.7328 44.1418Z" fill="#FF9900"/>
<path d="M94.6672 37.3352C91.6401 37.3352 91.6352 42.0401 94.6672 42.0401C97.6944 42.0401 97.6996 37.3352 94.6672 37.3352Z" fill="#FF9900"/>
<path d="M99.2645 43.3374C96.2372 43.3374 96.2323 48.0423 99.2645 48.0423C102.292 48.0423 102.297 43.3374 99.2645 43.3374Z" fill="#FF9900"/>
<path d="M21.0138 24.0869C17.9866 24.0869 17.9814 28.7918 21.0138 28.7918C24.0412 28.7918 24.0461 24.0869 21.0138 24.0869Z" fill="#FF9900"/>
<path d="M23.9483 17.2809C20.9211 17.2809 20.9162 21.9857 23.9483 21.9857C26.9757 21.9855 26.9809 17.2809 23.9483 17.2809Z" fill="#FF9900"/>
<path d="M28.5442 23.2831C25.517 23.2831 25.5121 27.9879 28.5442 27.9879C31.5714 27.9879 31.5763 23.2831 28.5442 23.2831Z" fill="#FF9900"/>
<path d="M66.4074 83.0691L35.1681 51.8297C34.6332 51.2951 33.8741 51.0497 33.1271 51.1713C32.3806 51.2928 31.7378 51.7655 31.4 52.4424L28.5913 58.0669L0.247841 114.834C-0.204268 115.74 -0.0266122 116.833 0.689169 117.548C1.14058 118 1.74245 118.238 2.353 118.238C2.70972 118.238 3.06925 118.156 3.403 117.99L65.7948 86.8371C66.4717 86.4994 66.9446 85.8567 67.0658 85.11C67.1874 84.3633 66.9423 83.6042 66.4074 83.0691ZM7.6037 110.633L17.77 90.2726L21.2024 103.844L7.6037 110.633ZM46.4251 91.2499L42.4196 81.488C41.9263 80.2861 40.5526 79.7114 39.3505 80.2045C38.1486 80.6977 37.5739 82.0718 38.0671 83.2737L42.2045 93.3572L25.5111 101.692L20.991 83.8207L30.4874 64.801L33.1004 71.1694C33.4738 72.079 34.3517 72.6295 35.2775 72.6295C35.5749 72.6295 35.8773 72.5728 36.1696 72.4528C37.3714 71.9597 37.9461 70.5856 37.453 69.3837L33.279 59.2106L34.1504 57.4657L60.7717 84.087L46.4251 91.2499Z" fill="#FF9900"/>
<path d="M110.298 78.139C105.05 78.139 100.78 82.4086 100.78 87.6568C100.78 92.9061 105.05 97.1768 110.298 97.1768C115.547 97.1768 119.818 92.9061 119.818 87.6568C119.818 82.4086 115.547 78.139 110.298 78.139ZM110.298 92.472C107.644 92.472 105.485 90.3118 105.485 87.6568C105.485 85.0029 107.644 82.8439 110.298 82.8439C112.953 82.8439 115.113 85.0029 115.113 87.6568C115.113 90.3118 112.953 92.472 110.298 92.472Z" fill="#FF9900"/>
<path d="M107.773 11.9124L98.3121 2.45115C97.8707 2.01005 97.2724 1.76208 96.6485 1.76208C96.0246 1.76208 95.4265 2.01005 94.9851 2.45138L85.5262 11.9126C84.608 12.8311 84.6082 14.3206 85.5265 15.2394L94.9854 24.6983C95.4447 25.1576 96.0468 25.3873 96.6487 25.3873C97.2506 25.3873 97.8527 25.1576 98.3118 24.6985L107.773 15.2396C108.215 14.7985 108.462 14.2001 108.462 13.576C108.462 12.9521 108.214 12.3537 107.773 11.9124ZM96.6492 19.7084L90.5168 13.5758L96.6492 7.4417L102.783 13.5758L96.6492 19.7084Z" fill="#FF9900"/>
<path d="M37.5603 74.0363C34.5331 74.0363 34.5282 78.7411 37.5603 78.7411C40.5875 78.7411 40.5924 74.0363 37.5603 74.0363Z" fill="#FF9900"/>
</svg>
